<mxfile host="app.diagrams.net" modified="2024-03-27T16:24:32.250Z" agent="Mozilla/5.0 (Windows NT 10.0; Win64; x64) AppleWebKit/537.36 (KHTML, like Gecko) Chrome/123.0.0.0 Safari/537.36" etag="0KIU9Cgp9pMOIp1SYXzU" version="24.2.0" type="device">
  <diagram name="Trang-1" id="Kt_rJjLxnJlqUONk99KK">
    <mxGraphModel dx="1750" dy="942" grid="0" gridSize="10" guides="1" tooltips="1" connect="1" arrows="1" fold="1" page="0" pageScale="1" pageWidth="827" pageHeight="1169" math="0" shadow="0">
      <root>
        <mxCell id="0" />
        <mxCell id="1" parent="0" />
        <mxCell id="BO8y0D7VBQcDdKsYQeH7-64" value="" style="edgeStyle=orthogonalEdgeStyle;rounded=0;orthogonalLoop=1;jettySize=auto;" parent="1" target="BO8y0D7VBQcDdKsYQeH7-63" edge="1">
          <mxGeometry relative="1" as="geometry">
            <mxPoint x="588" y="414.42857142857133" as="sourcePoint" />
          </mxGeometry>
        </mxCell>
        <mxCell id="nQx1I_NApKGMU57yptKq-1" value="" style="group" vertex="1" connectable="0" parent="1">
          <mxGeometry x="348" y="244" width="1045" height="665" as="geometry" />
        </mxCell>
        <mxCell id="sUd_lcswhvSATSNBrKiN-1" value="A: 3.1Â " style="rounded=0;fontFamily=Times New Roman;fontColor=default;labelBackgroundColor=default;" parent="nQx1I_NApKGMU57yptKq-1" vertex="1">
          <mxGeometry y="4" width="70" height="30" as="geometry" />
        </mxCell>
        <mxCell id="sUd_lcswhvSATSNBrKiN-3" value="" style="shape=table;startSize=0;container=1;collapsible=0;childLayout=tableLayout;fontSize=14;fontFamily=Times New Roman;fontColor=default;labelBackgroundColor=default;" parent="nQx1I_NApKGMU57yptKq-1" vertex="1">
          <mxGeometry x="54" y="67" width="240" height="199.7857055664063" as="geometry" />
        </mxCell>
        <mxCell id="sUd_lcswhvSATSNBrKiN-4" value="" style="shape=tableRow;horizontal=0;startSize=0;swimlaneHead=0;swimlaneBody=0;strokeColor=inherit;top=0;left=0;bottom=0;right=0;collapsible=0;dropTarget=0;fillColor=none;points=[[0,0.5],[1,0.5]];portConstraint=eastwest;fontSize=16;fontColor=default;labelBackgroundColor=default;" parent="sUd_lcswhvSATSNBrKiN-3" vertex="1">
          <mxGeometry width="240" height="40" as="geometry" />
        </mxCell>
        <mxCell id="sUd_lcswhvSATSNBrKiN-5" value="TID" style="shape=partialRectangle;connectable=0;strokeColor=inherit;overflow=hidden;fillColor=none;top=0;left=0;bottom=0;right=0;pointerEvents=1;fontSize=14;fontFamily=Times New Roman;fontColor=default;labelBackgroundColor=default;" parent="sUd_lcswhvSATSNBrKiN-4" vertex="1">
          <mxGeometry width="60" height="40" as="geometry">
            <mxRectangle width="60" height="40" as="alternateBounds" />
          </mxGeometry>
        </mxCell>
        <mxCell id="sUd_lcswhvSATSNBrKiN-6" value="Prob" style="shape=partialRectangle;connectable=0;strokeColor=inherit;overflow=hidden;fillColor=none;top=0;left=0;bottom=0;right=0;pointerEvents=1;fontSize=14;fontFamily=Times New Roman;fontColor=default;labelBackgroundColor=default;" parent="sUd_lcswhvSATSNBrKiN-4" vertex="1">
          <mxGeometry x="60" width="60" height="40" as="geometry">
            <mxRectangle width="60" height="40" as="alternateBounds" />
          </mxGeometry>
        </mxCell>
        <mxCell id="sUd_lcswhvSATSNBrKiN-7" value="Uti" style="shape=partialRectangle;connectable=0;strokeColor=inherit;overflow=hidden;fillColor=none;top=0;left=0;bottom=0;right=0;pointerEvents=1;fontSize=14;fontFamily=Times New Roman;fontColor=default;labelBackgroundColor=default;" parent="sUd_lcswhvSATSNBrKiN-4" vertex="1">
          <mxGeometry x="120" width="60" height="40" as="geometry">
            <mxRectangle width="60" height="40" as="alternateBounds" />
          </mxGeometry>
        </mxCell>
        <mxCell id="BO8y0D7VBQcDdKsYQeH7-69" value="tu" style="shape=partialRectangle;connectable=0;strokeColor=inherit;overflow=hidden;fillColor=none;top=0;left=0;bottom=0;right=0;pointerEvents=1;fontSize=14;fontFamily=Times New Roman;fontColor=default;labelBackgroundColor=default;" parent="sUd_lcswhvSATSNBrKiN-4" vertex="1">
          <mxGeometry x="180" width="60" height="40" as="geometry">
            <mxRectangle width="60" height="40" as="alternateBounds" />
          </mxGeometry>
        </mxCell>
        <mxCell id="sUd_lcswhvSATSNBrKiN-8" value="" style="shape=tableRow;horizontal=0;startSize=0;swimlaneHead=0;swimlaneBody=0;strokeColor=inherit;top=0;left=0;bottom=0;right=0;collapsible=0;dropTarget=0;fillColor=none;points=[[0,0.5],[1,0.5]];portConstraint=eastwest;fontSize=16;fontColor=default;labelBackgroundColor=default;" parent="sUd_lcswhvSATSNBrKiN-3" vertex="1">
          <mxGeometry y="40" width="240" height="40" as="geometry" />
        </mxCell>
        <mxCell id="sUd_lcswhvSATSNBrKiN-9" value="1" style="shape=partialRectangle;connectable=0;strokeColor=inherit;overflow=hidden;fillColor=none;top=0;left=0;bottom=0;right=0;pointerEvents=1;fontSize=14;fontFamily=Times New Roman;fontColor=default;labelBackgroundColor=default;" parent="sUd_lcswhvSATSNBrKiN-8" vertex="1">
          <mxGeometry width="60" height="40" as="geometry">
            <mxRectangle width="60" height="40" as="alternateBounds" />
          </mxGeometry>
        </mxCell>
        <mxCell id="sUd_lcswhvSATSNBrKiN-10" value="0.9" style="shape=partialRectangle;connectable=0;strokeColor=inherit;overflow=hidden;fillColor=none;top=0;left=0;bottom=0;right=0;pointerEvents=1;fontSize=14;fontFamily=Times New Roman;fontColor=default;labelBackgroundColor=default;" parent="sUd_lcswhvSATSNBrKiN-8" vertex="1">
          <mxGeometry x="60" width="60" height="40" as="geometry">
            <mxRectangle width="60" height="40" as="alternateBounds" />
          </mxGeometry>
        </mxCell>
        <mxCell id="sUd_lcswhvSATSNBrKiN-11" value="3" style="shape=partialRectangle;connectable=0;strokeColor=inherit;overflow=hidden;fillColor=none;top=0;left=0;bottom=0;right=0;pointerEvents=1;fontSize=14;fontFamily=Times New Roman;fontColor=default;labelBackgroundColor=default;" parent="sUd_lcswhvSATSNBrKiN-8" vertex="1">
          <mxGeometry x="120" width="60" height="40" as="geometry">
            <mxRectangle width="60" height="40" as="alternateBounds" />
          </mxGeometry>
        </mxCell>
        <mxCell id="BO8y0D7VBQcDdKsYQeH7-70" value="9" style="shape=partialRectangle;connectable=0;strokeColor=inherit;overflow=hidden;fillColor=none;top=0;left=0;bottom=0;right=0;pointerEvents=1;fontSize=14;fontFamily=Times New Roman;fontColor=default;labelBackgroundColor=default;" parent="sUd_lcswhvSATSNBrKiN-8" vertex="1">
          <mxGeometry x="180" width="60" height="40" as="geometry">
            <mxRectangle width="60" height="40" as="alternateBounds" />
          </mxGeometry>
        </mxCell>
        <mxCell id="sUd_lcswhvSATSNBrKiN-12" value="" style="shape=tableRow;horizontal=0;startSize=0;swimlaneHead=0;swimlaneBody=0;strokeColor=inherit;top=0;left=0;bottom=0;right=0;collapsible=0;dropTarget=0;fillColor=none;points=[[0,0.5],[1,0.5]];portConstraint=eastwest;fontSize=16;fontColor=default;labelBackgroundColor=default;" parent="sUd_lcswhvSATSNBrKiN-3" vertex="1">
          <mxGeometry y="80" width="240" height="40" as="geometry" />
        </mxCell>
        <mxCell id="sUd_lcswhvSATSNBrKiN-13" value="2" style="shape=partialRectangle;connectable=0;strokeColor=inherit;overflow=hidden;fillColor=none;top=0;left=0;bottom=0;right=0;pointerEvents=1;fontSize=14;fontFamily=Times New Roman;fontColor=default;labelBackgroundColor=default;" parent="sUd_lcswhvSATSNBrKiN-12" vertex="1">
          <mxGeometry width="60" height="40" as="geometry">
            <mxRectangle width="60" height="40" as="alternateBounds" />
          </mxGeometry>
        </mxCell>
        <mxCell id="sUd_lcswhvSATSNBrKiN-14" value="0.9" style="shape=partialRectangle;connectable=0;strokeColor=inherit;overflow=hidden;fillColor=none;top=0;left=0;bottom=0;right=0;pointerEvents=1;fontSize=14;fontFamily=Times New Roman;fontColor=default;labelBackgroundColor=default;" parent="sUd_lcswhvSATSNBrKiN-12" vertex="1">
          <mxGeometry x="60" width="60" height="40" as="geometry">
            <mxRectangle width="60" height="40" as="alternateBounds" />
          </mxGeometry>
        </mxCell>
        <mxCell id="sUd_lcswhvSATSNBrKiN-15" value="6" style="shape=partialRectangle;connectable=0;strokeColor=inherit;overflow=hidden;fillColor=none;top=0;left=0;bottom=0;right=0;pointerEvents=1;fontSize=14;fontFamily=Times New Roman;fontColor=default;labelBackgroundColor=default;" parent="sUd_lcswhvSATSNBrKiN-12" vertex="1">
          <mxGeometry x="120" width="60" height="40" as="geometry">
            <mxRectangle width="60" height="40" as="alternateBounds" />
          </mxGeometry>
        </mxCell>
        <mxCell id="BO8y0D7VBQcDdKsYQeH7-71" value="20" style="shape=partialRectangle;connectable=0;strokeColor=inherit;overflow=hidden;fillColor=none;top=0;left=0;bottom=0;right=0;pointerEvents=1;fontSize=14;fontFamily=Times New Roman;fontColor=default;labelBackgroundColor=default;" parent="sUd_lcswhvSATSNBrKiN-12" vertex="1">
          <mxGeometry x="180" width="60" height="40" as="geometry">
            <mxRectangle width="60" height="40" as="alternateBounds" />
          </mxGeometry>
        </mxCell>
        <mxCell id="sUd_lcswhvSATSNBrKiN-20" value="" style="shape=tableRow;horizontal=0;startSize=0;swimlaneHead=0;swimlaneBody=0;strokeColor=inherit;top=0;left=0;bottom=0;right=0;collapsible=0;dropTarget=0;fillColor=none;points=[[0,0.5],[1,0.5]];portConstraint=eastwest;fontSize=16;fontColor=default;labelBackgroundColor=default;" parent="sUd_lcswhvSATSNBrKiN-3" vertex="1">
          <mxGeometry y="120" width="240" height="40" as="geometry" />
        </mxCell>
        <mxCell id="sUd_lcswhvSATSNBrKiN-21" value="5" style="shape=partialRectangle;connectable=0;strokeColor=inherit;overflow=hidden;fillColor=none;top=0;left=0;bottom=0;right=0;pointerEvents=1;fontSize=14;fontFamily=Times New Roman;fontColor=default;labelBackgroundColor=default;" parent="sUd_lcswhvSATSNBrKiN-20" vertex="1">
          <mxGeometry width="60" height="40" as="geometry">
            <mxRectangle width="60" height="40" as="alternateBounds" />
          </mxGeometry>
        </mxCell>
        <mxCell id="sUd_lcswhvSATSNBrKiN-22" value="0.4" style="shape=partialRectangle;connectable=0;strokeColor=inherit;overflow=hidden;fillColor=none;top=0;left=0;bottom=0;right=0;pointerEvents=1;fontSize=14;fontFamily=Times New Roman;fontColor=default;labelBackgroundColor=default;" parent="sUd_lcswhvSATSNBrKiN-20" vertex="1">
          <mxGeometry x="60" width="60" height="40" as="geometry">
            <mxRectangle width="60" height="40" as="alternateBounds" />
          </mxGeometry>
        </mxCell>
        <mxCell id="sUd_lcswhvSATSNBrKiN-23" value="6" style="shape=partialRectangle;connectable=0;strokeColor=inherit;overflow=hidden;fillColor=none;top=0;left=0;bottom=0;right=0;pointerEvents=1;fontSize=14;fontFamily=Times New Roman;fontColor=default;labelBackgroundColor=default;" parent="sUd_lcswhvSATSNBrKiN-20" vertex="1">
          <mxGeometry x="120" width="60" height="40" as="geometry">
            <mxRectangle width="60" height="40" as="alternateBounds" />
          </mxGeometry>
        </mxCell>
        <mxCell id="BO8y0D7VBQcDdKsYQeH7-72" value="23" style="shape=partialRectangle;connectable=0;strokeColor=inherit;overflow=hidden;fillColor=none;top=0;left=0;bottom=0;right=0;pointerEvents=1;fontSize=14;fontFamily=Times New Roman;fontColor=default;labelBackgroundColor=default;" parent="sUd_lcswhvSATSNBrKiN-20" vertex="1">
          <mxGeometry x="180" width="60" height="40" as="geometry">
            <mxRectangle width="60" height="40" as="alternateBounds" />
          </mxGeometry>
        </mxCell>
        <mxCell id="sUd_lcswhvSATSNBrKiN-24" value="" style="shape=tableRow;horizontal=0;startSize=0;swimlaneHead=0;swimlaneBody=0;strokeColor=inherit;top=0;left=0;bottom=0;right=0;collapsible=0;dropTarget=0;fillColor=none;points=[[0,0.5],[1,0.5]];portConstraint=eastwest;fontSize=16;fontColor=default;labelBackgroundColor=default;" parent="sUd_lcswhvSATSNBrKiN-3" vertex="1">
          <mxGeometry y="160" width="240" height="40" as="geometry" />
        </mxCell>
        <mxCell id="sUd_lcswhvSATSNBrKiN-25" value="7" style="shape=partialRectangle;connectable=0;strokeColor=inherit;overflow=hidden;fillColor=none;top=0;left=0;bottom=0;right=0;pointerEvents=1;fontSize=14;fontFamily=Times New Roman;fontColor=default;labelBackgroundColor=default;" parent="sUd_lcswhvSATSNBrKiN-24" vertex="1">
          <mxGeometry width="60" height="40" as="geometry">
            <mxRectangle width="60" height="40" as="alternateBounds" />
          </mxGeometry>
        </mxCell>
        <mxCell id="sUd_lcswhvSATSNBrKiN-26" value="0.9" style="shape=partialRectangle;connectable=0;strokeColor=inherit;overflow=hidden;fillColor=none;top=0;left=0;bottom=0;right=0;pointerEvents=1;fontSize=14;fontFamily=Times New Roman;fontColor=default;labelBackgroundColor=default;" parent="sUd_lcswhvSATSNBrKiN-24" vertex="1">
          <mxGeometry x="60" width="60" height="40" as="geometry">
            <mxRectangle width="60" height="40" as="alternateBounds" />
          </mxGeometry>
        </mxCell>
        <mxCell id="sUd_lcswhvSATSNBrKiN-27" value="3" style="shape=partialRectangle;connectable=0;strokeColor=inherit;overflow=hidden;fillColor=none;top=0;left=0;bottom=0;right=0;pointerEvents=1;fontSize=14;fontFamily=Times New Roman;fontColor=default;labelBackgroundColor=default;" parent="sUd_lcswhvSATSNBrKiN-24" vertex="1">
          <mxGeometry x="120" width="60" height="40" as="geometry">
            <mxRectangle width="60" height="40" as="alternateBounds" />
          </mxGeometry>
        </mxCell>
        <mxCell id="BO8y0D7VBQcDdKsYQeH7-73" value="5" style="shape=partialRectangle;connectable=0;strokeColor=inherit;overflow=hidden;fillColor=none;top=0;left=0;bottom=0;right=0;pointerEvents=1;fontSize=14;fontFamily=Times New Roman;fontColor=default;labelBackgroundColor=default;" parent="sUd_lcswhvSATSNBrKiN-24" vertex="1">
          <mxGeometry x="180" width="60" height="40" as="geometry">
            <mxRectangle width="60" height="40" as="alternateBounds" />
          </mxGeometry>
        </mxCell>
        <mxCell id="BO8y0D7VBQcDdKsYQeH7-63" value="" style="whiteSpace=wrap;fontSize=16;startSize=0;" parent="sUd_lcswhvSATSNBrKiN-24" vertex="1">
          <mxGeometry x="240" width="NaN" height="40" as="geometry">
            <mxRectangle width="NaN" height="40" as="alternateBounds" />
          </mxGeometry>
        </mxCell>
        <mxCell id="sUd_lcswhvSATSNBrKiN-29" value="Max: 0.9" style="text;strokeColor=none;fillColor=none;align=center;verticalAlign=middle;rounded=0;fontColor=default;labelBackgroundColor=default;" parent="nQx1I_NApKGMU57yptKq-1" vertex="1">
          <mxGeometry x="113" y="37" width="60" height="30" as="geometry" />
        </mxCell>
        <mxCell id="sUd_lcswhvSATSNBrKiN-30" value="Utility: 18" style="text;strokeColor=none;fillColor=none;align=center;verticalAlign=middle;rounded=0;fontColor=default;labelBackgroundColor=default;" parent="nQx1I_NApKGMU57yptKq-1" vertex="1">
          <mxGeometry x="173" y="37" width="60" height="30" as="geometry" />
        </mxCell>
        <mxCell id="sUd_lcswhvSATSNBrKiN-31" value="" style="endArrow=none;rounded=0;entryX=0.5;entryY=1;entryDx=0;entryDy=0;exitX=0;exitY=0.5;exitDx=0;exitDy=0;fontColor=default;labelBackgroundColor=default;" parent="nQx1I_NApKGMU57yptKq-1" source="sUd_lcswhvSATSNBrKiN-4" target="sUd_lcswhvSATSNBrKiN-1" edge="1">
          <mxGeometry width="50" height="50" relative="1" as="geometry">
            <mxPoint x="20" y="64" as="sourcePoint" />
            <mxPoint x="92" y="12" as="targetPoint" />
          </mxGeometry>
        </mxCell>
        <mxCell id="sUd_lcswhvSATSNBrKiN-57" value="B: 2.6Â " style="rounded=0;fontFamily=Times New Roman;fontColor=default;labelBackgroundColor=default;" parent="nQx1I_NApKGMU57yptKq-1" vertex="1">
          <mxGeometry x="383" y="3" width="70" height="30" as="geometry" />
        </mxCell>
        <mxCell id="sUd_lcswhvSATSNBrKiN-58" value="" style="shape=table;startSize=0;container=1;collapsible=0;childLayout=tableLayout;fontSize=14;fontFamily=Times New Roman;swimlaneLine=1;fontColor=default;labelBackgroundColor=default;" parent="nQx1I_NApKGMU57yptKq-1" vertex="1">
          <mxGeometry x="437" y="63" width="240" height="200" as="geometry" />
        </mxCell>
        <mxCell id="sUd_lcswhvSATSNBrKiN-59" value="" style="shape=tableRow;horizontal=0;startSize=0;swimlaneHead=0;swimlaneBody=0;strokeColor=inherit;top=0;left=0;bottom=0;right=0;collapsible=0;dropTarget=0;fillColor=none;points=[[0,0.5],[1,0.5]];portConstraint=eastwest;fontSize=16;fontColor=default;labelBackgroundColor=default;" parent="sUd_lcswhvSATSNBrKiN-58" vertex="1">
          <mxGeometry width="240" height="40" as="geometry" />
        </mxCell>
        <mxCell id="sUd_lcswhvSATSNBrKiN-60" value="TID" style="shape=partialRectangle;connectable=0;strokeColor=inherit;overflow=hidden;fillColor=none;top=0;left=0;bottom=0;right=0;pointerEvents=1;fontSize=14;fontFamily=Times New Roman;fontColor=default;labelBackgroundColor=default;" parent="sUd_lcswhvSATSNBrKiN-59" vertex="1">
          <mxGeometry width="60" height="40" as="geometry">
            <mxRectangle width="60" height="40" as="alternateBounds" />
          </mxGeometry>
        </mxCell>
        <mxCell id="sUd_lcswhvSATSNBrKiN-61" value="Prob" style="shape=partialRectangle;connectable=0;strokeColor=inherit;overflow=hidden;fillColor=none;top=0;left=0;bottom=0;right=0;pointerEvents=1;fontSize=14;fontFamily=Times New Roman;fontColor=default;labelBackgroundColor=default;" parent="sUd_lcswhvSATSNBrKiN-59" vertex="1">
          <mxGeometry x="60" width="60" height="40" as="geometry">
            <mxRectangle width="60" height="40" as="alternateBounds" />
          </mxGeometry>
        </mxCell>
        <mxCell id="sUd_lcswhvSATSNBrKiN-62" value="Uti" style="shape=partialRectangle;connectable=0;strokeColor=inherit;overflow=hidden;fillColor=none;top=0;left=0;bottom=0;right=0;pointerEvents=1;fontSize=14;fontFamily=Times New Roman;fontColor=default;labelBackgroundColor=default;" parent="sUd_lcswhvSATSNBrKiN-59" vertex="1">
          <mxGeometry x="120" width="60" height="40" as="geometry">
            <mxRectangle width="60" height="40" as="alternateBounds" />
          </mxGeometry>
        </mxCell>
        <mxCell id="BO8y0D7VBQcDdKsYQeH7-74" value="tu" style="shape=partialRectangle;connectable=0;strokeColor=inherit;overflow=hidden;fillColor=none;top=0;left=0;bottom=0;right=0;pointerEvents=1;fontSize=14;fontFamily=Times New Roman;fontColor=default;labelBackgroundColor=default;" parent="sUd_lcswhvSATSNBrKiN-59" vertex="1">
          <mxGeometry x="180" width="60" height="40" as="geometry">
            <mxRectangle width="60" height="40" as="alternateBounds" />
          </mxGeometry>
        </mxCell>
        <mxCell id="sUd_lcswhvSATSNBrKiN-63" value="" style="shape=tableRow;horizontal=0;startSize=0;swimlaneHead=0;swimlaneBody=0;strokeColor=inherit;top=0;left=0;bottom=0;right=0;collapsible=0;dropTarget=0;fillColor=none;points=[[0,0.5],[1,0.5]];portConstraint=eastwest;fontSize=16;fontColor=default;labelBackgroundColor=default;" parent="sUd_lcswhvSATSNBrKiN-58" vertex="1">
          <mxGeometry y="40" width="240" height="40" as="geometry" />
        </mxCell>
        <mxCell id="sUd_lcswhvSATSNBrKiN-64" value="2" style="shape=partialRectangle;connectable=0;strokeColor=inherit;overflow=hidden;fillColor=none;top=0;left=0;bottom=0;right=0;pointerEvents=1;fontSize=14;fontFamily=Times New Roman;fontColor=default;labelBackgroundColor=default;" parent="sUd_lcswhvSATSNBrKiN-63" vertex="1">
          <mxGeometry width="60" height="40" as="geometry">
            <mxRectangle width="60" height="40" as="alternateBounds" />
          </mxGeometry>
        </mxCell>
        <mxCell id="sUd_lcswhvSATSNBrKiN-65" value="0.9" style="shape=partialRectangle;connectable=0;strokeColor=inherit;overflow=hidden;fillColor=none;top=0;left=0;bottom=0;right=0;pointerEvents=1;fontSize=14;fontFamily=Times New Roman;fontColor=default;labelBackgroundColor=default;" parent="sUd_lcswhvSATSNBrKiN-63" vertex="1">
          <mxGeometry x="60" width="60" height="40" as="geometry">
            <mxRectangle width="60" height="40" as="alternateBounds" />
          </mxGeometry>
        </mxCell>
        <mxCell id="sUd_lcswhvSATSNBrKiN-66" value="2" style="shape=partialRectangle;connectable=0;strokeColor=inherit;overflow=hidden;fillColor=none;top=0;left=0;bottom=0;right=0;pointerEvents=1;fontSize=14;fontFamily=Times New Roman;fontColor=default;labelBackgroundColor=default;" parent="sUd_lcswhvSATSNBrKiN-63" vertex="1">
          <mxGeometry x="120" width="60" height="40" as="geometry">
            <mxRectangle width="60" height="40" as="alternateBounds" />
          </mxGeometry>
        </mxCell>
        <mxCell id="BO8y0D7VBQcDdKsYQeH7-75" value="20" style="shape=partialRectangle;connectable=0;strokeColor=inherit;overflow=hidden;fillColor=none;top=0;left=0;bottom=0;right=0;pointerEvents=1;fontSize=14;fontFamily=Times New Roman;fontColor=default;labelBackgroundColor=default;" parent="sUd_lcswhvSATSNBrKiN-63" vertex="1">
          <mxGeometry x="180" width="60" height="40" as="geometry">
            <mxRectangle width="60" height="40" as="alternateBounds" />
          </mxGeometry>
        </mxCell>
        <mxCell id="sUd_lcswhvSATSNBrKiN-67" value="" style="shape=tableRow;horizontal=0;startSize=0;swimlaneHead=0;swimlaneBody=0;strokeColor=inherit;top=0;left=0;bottom=0;right=0;collapsible=0;dropTarget=0;fillColor=none;points=[[0,0.5],[1,0.5]];portConstraint=eastwest;fontSize=16;fontColor=default;labelBackgroundColor=default;" parent="sUd_lcswhvSATSNBrKiN-58" vertex="1">
          <mxGeometry y="80" width="240" height="40" as="geometry" />
        </mxCell>
        <mxCell id="sUd_lcswhvSATSNBrKiN-68" value="3" style="shape=partialRectangle;connectable=0;strokeColor=inherit;overflow=hidden;fillColor=none;top=0;left=0;bottom=0;right=0;pointerEvents=1;fontSize=14;fontFamily=Times New Roman;fontColor=default;labelBackgroundColor=default;" parent="sUd_lcswhvSATSNBrKiN-67" vertex="1">
          <mxGeometry width="60" height="40" as="geometry">
            <mxRectangle width="60" height="40" as="alternateBounds" />
          </mxGeometry>
        </mxCell>
        <mxCell id="sUd_lcswhvSATSNBrKiN-69" value="0.5" style="shape=partialRectangle;connectable=0;strokeColor=inherit;overflow=hidden;fillColor=none;top=0;left=0;bottom=0;right=0;pointerEvents=1;fontSize=14;fontFamily=Times New Roman;fontColor=default;labelBackgroundColor=default;" parent="sUd_lcswhvSATSNBrKiN-67" vertex="1">
          <mxGeometry x="60" width="60" height="40" as="geometry">
            <mxRectangle width="60" height="40" as="alternateBounds" />
          </mxGeometry>
        </mxCell>
        <mxCell id="sUd_lcswhvSATSNBrKiN-70" value="2" style="shape=partialRectangle;connectable=0;strokeColor=inherit;overflow=hidden;fillColor=none;top=0;left=0;bottom=0;right=0;pointerEvents=1;fontSize=14;fontFamily=Times New Roman;fontColor=default;labelBackgroundColor=default;" parent="sUd_lcswhvSATSNBrKiN-67" vertex="1">
          <mxGeometry x="120" width="60" height="40" as="geometry">
            <mxRectangle width="60" height="40" as="alternateBounds" />
          </mxGeometry>
        </mxCell>
        <mxCell id="BO8y0D7VBQcDdKsYQeH7-76" value="17" style="shape=partialRectangle;connectable=0;strokeColor=inherit;overflow=hidden;fillColor=none;top=0;left=0;bottom=0;right=0;pointerEvents=1;fontSize=14;fontFamily=Times New Roman;fontColor=default;labelBackgroundColor=default;" parent="sUd_lcswhvSATSNBrKiN-67" vertex="1">
          <mxGeometry x="180" width="60" height="40" as="geometry">
            <mxRectangle width="60" height="40" as="alternateBounds" />
          </mxGeometry>
        </mxCell>
        <mxCell id="sUd_lcswhvSATSNBrKiN-71" value="" style="shape=tableRow;horizontal=0;startSize=0;swimlaneHead=0;swimlaneBody=0;strokeColor=inherit;top=0;left=0;bottom=0;right=0;collapsible=0;dropTarget=0;fillColor=none;points=[[0,0.5],[1,0.5]];portConstraint=eastwest;fontSize=16;fontColor=default;labelBackgroundColor=default;" parent="sUd_lcswhvSATSNBrKiN-58" vertex="1">
          <mxGeometry y="120" width="240" height="40" as="geometry" />
        </mxCell>
        <mxCell id="sUd_lcswhvSATSNBrKiN-72" value="5" style="shape=partialRectangle;connectable=0;strokeColor=inherit;overflow=hidden;fillColor=none;top=0;left=0;bottom=0;right=0;pointerEvents=1;fontSize=14;fontFamily=Times New Roman;fontColor=default;labelBackgroundColor=default;" parent="sUd_lcswhvSATSNBrKiN-71" vertex="1">
          <mxGeometry width="60" height="40" as="geometry">
            <mxRectangle width="60" height="40" as="alternateBounds" />
          </mxGeometry>
        </mxCell>
        <mxCell id="sUd_lcswhvSATSNBrKiN-73" value="0.5" style="shape=partialRectangle;connectable=0;strokeColor=inherit;overflow=hidden;fillColor=none;top=0;left=0;bottom=0;right=0;pointerEvents=1;fontSize=14;fontFamily=Times New Roman;fontColor=default;labelBackgroundColor=default;" parent="sUd_lcswhvSATSNBrKiN-71" vertex="1">
          <mxGeometry x="60" width="60" height="40" as="geometry">
            <mxRectangle width="60" height="40" as="alternateBounds" />
          </mxGeometry>
        </mxCell>
        <mxCell id="sUd_lcswhvSATSNBrKiN-74" value="4" style="shape=partialRectangle;connectable=0;strokeColor=inherit;overflow=hidden;fillColor=none;top=0;left=0;bottom=0;right=0;pointerEvents=1;fontSize=14;fontFamily=Times New Roman;fontColor=default;labelBackgroundColor=default;" parent="sUd_lcswhvSATSNBrKiN-71" vertex="1">
          <mxGeometry x="120" width="60" height="40" as="geometry">
            <mxRectangle width="60" height="40" as="alternateBounds" />
          </mxGeometry>
        </mxCell>
        <mxCell id="BO8y0D7VBQcDdKsYQeH7-77" value="23" style="shape=partialRectangle;connectable=0;strokeColor=inherit;overflow=hidden;fillColor=none;top=0;left=0;bottom=0;right=0;pointerEvents=1;fontSize=14;fontFamily=Times New Roman;fontColor=default;labelBackgroundColor=default;" parent="sUd_lcswhvSATSNBrKiN-71" vertex="1">
          <mxGeometry x="180" width="60" height="40" as="geometry">
            <mxRectangle width="60" height="40" as="alternateBounds" />
          </mxGeometry>
        </mxCell>
        <mxCell id="sUd_lcswhvSATSNBrKiN-75" value="" style="shape=tableRow;horizontal=0;startSize=0;swimlaneHead=0;swimlaneBody=0;strokeColor=inherit;top=0;left=0;bottom=0;right=0;collapsible=0;dropTarget=0;fillColor=none;points=[[0,0.5],[1,0.5]];portConstraint=eastwest;fontSize=16;fontColor=default;labelBackgroundColor=default;" parent="sUd_lcswhvSATSNBrKiN-58" vertex="1">
          <mxGeometry y="160" width="240" height="40" as="geometry" />
        </mxCell>
        <mxCell id="sUd_lcswhvSATSNBrKiN-76" value="7" style="shape=partialRectangle;connectable=0;strokeColor=inherit;overflow=hidden;fillColor=none;top=0;left=0;bottom=0;right=0;pointerEvents=1;fontSize=14;fontFamily=Times New Roman;fontColor=default;labelBackgroundColor=default;" parent="sUd_lcswhvSATSNBrKiN-75" vertex="1">
          <mxGeometry width="60" height="40" as="geometry">
            <mxRectangle width="60" height="40" as="alternateBounds" />
          </mxGeometry>
        </mxCell>
        <mxCell id="sUd_lcswhvSATSNBrKiN-77" value="0.7" style="shape=partialRectangle;connectable=0;strokeColor=inherit;overflow=hidden;fillColor=none;top=0;left=0;bottom=0;right=0;pointerEvents=1;fontSize=14;fontFamily=Times New Roman;fontColor=default;labelBackgroundColor=default;" parent="sUd_lcswhvSATSNBrKiN-75" vertex="1">
          <mxGeometry x="60" width="60" height="40" as="geometry">
            <mxRectangle width="60" height="40" as="alternateBounds" />
          </mxGeometry>
        </mxCell>
        <mxCell id="sUd_lcswhvSATSNBrKiN-78" value="2" style="shape=partialRectangle;connectable=0;strokeColor=inherit;overflow=hidden;fillColor=none;top=0;left=0;bottom=0;right=0;pointerEvents=1;fontSize=14;fontFamily=Times New Roman;fontColor=default;labelBackgroundColor=default;" parent="sUd_lcswhvSATSNBrKiN-75" vertex="1">
          <mxGeometry x="120" width="60" height="40" as="geometry">
            <mxRectangle width="60" height="40" as="alternateBounds" />
          </mxGeometry>
        </mxCell>
        <mxCell id="BO8y0D7VBQcDdKsYQeH7-78" value="5" style="shape=partialRectangle;connectable=0;strokeColor=inherit;overflow=hidden;fillColor=none;top=0;left=0;bottom=0;right=0;pointerEvents=1;fontSize=14;fontFamily=Times New Roman;fontColor=default;labelBackgroundColor=default;" parent="sUd_lcswhvSATSNBrKiN-75" vertex="1">
          <mxGeometry x="180" width="60" height="40" as="geometry">
            <mxRectangle width="60" height="40" as="alternateBounds" />
          </mxGeometry>
        </mxCell>
        <mxCell id="sUd_lcswhvSATSNBrKiN-79" value="Max: 0.9" style="text;strokeColor=none;fillColor=none;align=center;verticalAlign=middle;rounded=0;fontColor=default;labelBackgroundColor=default;" parent="nQx1I_NApKGMU57yptKq-1" vertex="1">
          <mxGeometry x="497" y="33" width="60" height="30" as="geometry" />
        </mxCell>
        <mxCell id="sUd_lcswhvSATSNBrKiN-80" value="Utility: 10&#xa;" style="text;strokeColor=none;fillColor=none;align=center;verticalAlign=middle;rounded=0;fontColor=default;labelBackgroundColor=default;" parent="nQx1I_NApKGMU57yptKq-1" vertex="1">
          <mxGeometry x="557" y="48" width="60" height="15" as="geometry" />
        </mxCell>
        <mxCell id="sUd_lcswhvSATSNBrKiN-81" value="" style="endArrow=none;rounded=0;entryX=0.5;entryY=1;entryDx=0;entryDy=0;exitX=0.002;exitY=0.03;exitDx=0;exitDy=0;exitPerimeter=0;fontColor=default;labelBackgroundColor=default;" parent="nQx1I_NApKGMU57yptKq-1" source="sUd_lcswhvSATSNBrKiN-59" target="sUd_lcswhvSATSNBrKiN-57" edge="1">
          <mxGeometry width="50" height="50" relative="1" as="geometry">
            <mxPoint x="427" y="53" as="sourcePoint" />
            <mxPoint x="477" y="13" as="targetPoint" />
          </mxGeometry>
        </mxCell>
        <mxCell id="sUd_lcswhvSATSNBrKiN-109" value="C: 4.2Â " style="rounded=0;fontFamily=Times New Roman;fontColor=default;labelBackgroundColor=default;" parent="nQx1I_NApKGMU57yptKq-1" vertex="1">
          <mxGeometry x="747" width="70" height="30" as="geometry" />
        </mxCell>
        <mxCell id="sUd_lcswhvSATSNBrKiN-110" value="" style="shape=table;startSize=0;container=1;collapsible=0;childLayout=tableLayout;fontSize=14;fontFamily=Times New Roman;fontColor=default;labelBackgroundColor=default;" parent="nQx1I_NApKGMU57yptKq-1" vertex="1">
          <mxGeometry x="799" y="58" width="240" height="240" as="geometry" />
        </mxCell>
        <mxCell id="sUd_lcswhvSATSNBrKiN-111" value="" style="shape=tableRow;horizontal=0;startSize=0;swimlaneHead=0;swimlaneBody=0;strokeColor=inherit;top=0;left=0;bottom=0;right=0;collapsible=0;dropTarget=0;fillColor=none;points=[[0,0.5],[1,0.5]];portConstraint=eastwest;fontSize=16;fontColor=default;labelBackgroundColor=default;" parent="sUd_lcswhvSATSNBrKiN-110" vertex="1">
          <mxGeometry width="240" height="40" as="geometry" />
        </mxCell>
        <mxCell id="sUd_lcswhvSATSNBrKiN-112" value="TID" style="shape=partialRectangle;connectable=0;strokeColor=inherit;overflow=hidden;fillColor=none;top=0;left=0;bottom=0;right=0;pointerEvents=1;fontSize=14;fontFamily=Times New Roman;fontColor=default;labelBackgroundColor=default;" parent="sUd_lcswhvSATSNBrKiN-111" vertex="1">
          <mxGeometry width="60" height="40" as="geometry">
            <mxRectangle width="60" height="40" as="alternateBounds" />
          </mxGeometry>
        </mxCell>
        <mxCell id="sUd_lcswhvSATSNBrKiN-113" value="Prob" style="shape=partialRectangle;connectable=0;strokeColor=inherit;overflow=hidden;fillColor=none;top=0;left=0;bottom=0;right=0;pointerEvents=1;fontSize=14;fontFamily=Times New Roman;fontColor=default;labelBackgroundColor=default;" parent="sUd_lcswhvSATSNBrKiN-111" vertex="1">
          <mxGeometry x="60" width="60" height="40" as="geometry">
            <mxRectangle width="60" height="40" as="alternateBounds" />
          </mxGeometry>
        </mxCell>
        <mxCell id="sUd_lcswhvSATSNBrKiN-114" value="Uti" style="shape=partialRectangle;connectable=0;strokeColor=inherit;overflow=hidden;fillColor=none;top=0;left=0;bottom=0;right=0;pointerEvents=1;fontSize=14;fontFamily=Times New Roman;fontColor=default;labelBackgroundColor=default;" parent="sUd_lcswhvSATSNBrKiN-111" vertex="1">
          <mxGeometry x="120" width="60" height="40" as="geometry">
            <mxRectangle width="60" height="40" as="alternateBounds" />
          </mxGeometry>
        </mxCell>
        <mxCell id="BO8y0D7VBQcDdKsYQeH7-79" value="tu" style="shape=partialRectangle;connectable=0;strokeColor=inherit;overflow=hidden;fillColor=none;top=0;left=0;bottom=0;right=0;pointerEvents=1;fontSize=14;fontFamily=Times New Roman;fontColor=default;labelBackgroundColor=default;" parent="sUd_lcswhvSATSNBrKiN-111" vertex="1">
          <mxGeometry x="180" width="60" height="40" as="geometry">
            <mxRectangle width="60" height="40" as="alternateBounds" />
          </mxGeometry>
        </mxCell>
        <mxCell id="sUd_lcswhvSATSNBrKiN-115" value="" style="shape=tableRow;horizontal=0;startSize=0;swimlaneHead=0;swimlaneBody=0;strokeColor=inherit;top=0;left=0;bottom=0;right=0;collapsible=0;dropTarget=0;fillColor=none;points=[[0,0.5],[1,0.5]];portConstraint=eastwest;fontSize=16;fontColor=default;labelBackgroundColor=default;" parent="sUd_lcswhvSATSNBrKiN-110" vertex="1">
          <mxGeometry y="40" width="240" height="40" as="geometry" />
        </mxCell>
        <mxCell id="sUd_lcswhvSATSNBrKiN-116" value="1" style="shape=partialRectangle;connectable=0;strokeColor=inherit;overflow=hidden;fillColor=none;top=0;left=0;bottom=0;right=0;pointerEvents=1;fontSize=14;fontFamily=Times New Roman;fontColor=default;labelBackgroundColor=default;" parent="sUd_lcswhvSATSNBrKiN-115" vertex="1">
          <mxGeometry width="60" height="40" as="geometry">
            <mxRectangle width="60" height="40" as="alternateBounds" />
          </mxGeometry>
        </mxCell>
        <mxCell id="sUd_lcswhvSATSNBrKiN-117" value="0.9" style="shape=partialRectangle;connectable=0;strokeColor=inherit;overflow=hidden;fillColor=none;top=0;left=0;bottom=0;right=0;pointerEvents=1;fontSize=14;fontFamily=Times New Roman;fontColor=default;labelBackgroundColor=default;" parent="sUd_lcswhvSATSNBrKiN-115" vertex="1">
          <mxGeometry x="60" width="60" height="40" as="geometry">
            <mxRectangle width="60" height="40" as="alternateBounds" />
          </mxGeometry>
        </mxCell>
        <mxCell id="sUd_lcswhvSATSNBrKiN-118" value="1" style="shape=partialRectangle;connectable=0;strokeColor=inherit;overflow=hidden;fillColor=none;top=0;left=0;bottom=0;right=0;pointerEvents=1;fontSize=14;fontFamily=Times New Roman;fontColor=default;labelBackgroundColor=default;" parent="sUd_lcswhvSATSNBrKiN-115" vertex="1">
          <mxGeometry x="120" width="60" height="40" as="geometry">
            <mxRectangle width="60" height="40" as="alternateBounds" />
          </mxGeometry>
        </mxCell>
        <mxCell id="BO8y0D7VBQcDdKsYQeH7-80" value="9" style="shape=partialRectangle;connectable=0;strokeColor=inherit;overflow=hidden;fillColor=none;top=0;left=0;bottom=0;right=0;pointerEvents=1;fontSize=14;fontFamily=Times New Roman;fontColor=default;labelBackgroundColor=default;" parent="sUd_lcswhvSATSNBrKiN-115" vertex="1">
          <mxGeometry x="180" width="60" height="40" as="geometry">
            <mxRectangle width="60" height="40" as="alternateBounds" />
          </mxGeometry>
        </mxCell>
        <mxCell id="sUd_lcswhvSATSNBrKiN-119" value="" style="shape=tableRow;horizontal=0;startSize=0;swimlaneHead=0;swimlaneBody=0;strokeColor=inherit;top=0;left=0;bottom=0;right=0;collapsible=0;dropTarget=0;fillColor=none;points=[[0,0.5],[1,0.5]];portConstraint=eastwest;fontSize=16;fontColor=default;labelBackgroundColor=default;" parent="sUd_lcswhvSATSNBrKiN-110" vertex="1">
          <mxGeometry y="80" width="240" height="40" as="geometry" />
        </mxCell>
        <mxCell id="sUd_lcswhvSATSNBrKiN-120" value="2" style="shape=partialRectangle;connectable=0;strokeColor=inherit;overflow=hidden;fillColor=none;top=0;left=0;bottom=0;right=0;pointerEvents=1;fontSize=14;fontFamily=Times New Roman;fontColor=default;labelBackgroundColor=default;" parent="sUd_lcswhvSATSNBrKiN-119" vertex="1">
          <mxGeometry width="60" height="40" as="geometry">
            <mxRectangle width="60" height="40" as="alternateBounds" />
          </mxGeometry>
        </mxCell>
        <mxCell id="sUd_lcswhvSATSNBrKiN-121" value="0.7" style="shape=partialRectangle;connectable=0;strokeColor=inherit;overflow=hidden;fillColor=none;top=0;left=0;bottom=0;right=0;pointerEvents=1;fontSize=14;fontFamily=Times New Roman;fontColor=default;labelBackgroundColor=default;" parent="sUd_lcswhvSATSNBrKiN-119" vertex="1">
          <mxGeometry x="60" width="60" height="40" as="geometry">
            <mxRectangle width="60" height="40" as="alternateBounds" />
          </mxGeometry>
        </mxCell>
        <mxCell id="sUd_lcswhvSATSNBrKiN-122" value="3" style="shape=partialRectangle;connectable=0;strokeColor=inherit;overflow=hidden;fillColor=none;top=0;left=0;bottom=0;right=0;pointerEvents=1;fontSize=14;fontFamily=Times New Roman;fontColor=default;labelBackgroundColor=default;" parent="sUd_lcswhvSATSNBrKiN-119" vertex="1">
          <mxGeometry x="120" width="60" height="40" as="geometry">
            <mxRectangle width="60" height="40" as="alternateBounds" />
          </mxGeometry>
        </mxCell>
        <mxCell id="BO8y0D7VBQcDdKsYQeH7-81" value="20" style="shape=partialRectangle;connectable=0;strokeColor=inherit;overflow=hidden;fillColor=none;top=0;left=0;bottom=0;right=0;pointerEvents=1;fontSize=14;fontFamily=Times New Roman;fontColor=default;labelBackgroundColor=default;" parent="sUd_lcswhvSATSNBrKiN-119" vertex="1">
          <mxGeometry x="180" width="60" height="40" as="geometry">
            <mxRectangle width="60" height="40" as="alternateBounds" />
          </mxGeometry>
        </mxCell>
        <mxCell id="sUd_lcswhvSATSNBrKiN-123" value="" style="shape=tableRow;horizontal=0;startSize=0;swimlaneHead=0;swimlaneBody=0;strokeColor=inherit;top=0;left=0;bottom=0;right=0;collapsible=0;dropTarget=0;fillColor=none;points=[[0,0.5],[1,0.5]];portConstraint=eastwest;fontSize=16;fontColor=default;labelBackgroundColor=default;" parent="sUd_lcswhvSATSNBrKiN-110" vertex="1">
          <mxGeometry y="120" width="240" height="40" as="geometry" />
        </mxCell>
        <mxCell id="sUd_lcswhvSATSNBrKiN-124" value="3" style="shape=partialRectangle;connectable=0;strokeColor=inherit;overflow=hidden;fillColor=none;top=0;left=0;bottom=0;right=0;pointerEvents=1;fontSize=14;fontFamily=Times New Roman;fontColor=default;labelBackgroundColor=default;" parent="sUd_lcswhvSATSNBrKiN-123" vertex="1">
          <mxGeometry width="60" height="40" as="geometry">
            <mxRectangle width="60" height="40" as="alternateBounds" />
          </mxGeometry>
        </mxCell>
        <mxCell id="sUd_lcswhvSATSNBrKiN-125" value="0.8" style="shape=partialRectangle;connectable=0;strokeColor=inherit;overflow=hidden;fillColor=none;top=0;left=0;bottom=0;right=0;pointerEvents=1;fontSize=14;fontFamily=Times New Roman;fontColor=default;labelBackgroundColor=default;" parent="sUd_lcswhvSATSNBrKiN-123" vertex="1">
          <mxGeometry x="60" width="60" height="40" as="geometry">
            <mxRectangle width="60" height="40" as="alternateBounds" />
          </mxGeometry>
        </mxCell>
        <mxCell id="sUd_lcswhvSATSNBrKiN-126" value="6" style="shape=partialRectangle;connectable=0;strokeColor=inherit;overflow=hidden;fillColor=none;top=0;left=0;bottom=0;right=0;pointerEvents=1;fontSize=14;fontFamily=Times New Roman;fontColor=default;labelBackgroundColor=default;" parent="sUd_lcswhvSATSNBrKiN-123" vertex="1">
          <mxGeometry x="120" width="60" height="40" as="geometry">
            <mxRectangle width="60" height="40" as="alternateBounds" />
          </mxGeometry>
        </mxCell>
        <mxCell id="BO8y0D7VBQcDdKsYQeH7-82" value="17" style="shape=partialRectangle;connectable=0;strokeColor=inherit;overflow=hidden;fillColor=none;top=0;left=0;bottom=0;right=0;pointerEvents=1;fontSize=14;fontFamily=Times New Roman;fontColor=default;labelBackgroundColor=default;" parent="sUd_lcswhvSATSNBrKiN-123" vertex="1">
          <mxGeometry x="180" width="60" height="40" as="geometry">
            <mxRectangle width="60" height="40" as="alternateBounds" />
          </mxGeometry>
        </mxCell>
        <mxCell id="sUd_lcswhvSATSNBrKiN-127" value="" style="shape=tableRow;horizontal=0;startSize=0;swimlaneHead=0;swimlaneBody=0;strokeColor=inherit;top=0;left=0;bottom=0;right=0;collapsible=0;dropTarget=0;fillColor=none;points=[[0,0.5],[1,0.5]];portConstraint=eastwest;fontSize=16;fontColor=default;labelBackgroundColor=default;" parent="sUd_lcswhvSATSNBrKiN-110" vertex="1">
          <mxGeometry y="160" width="240" height="40" as="geometry" />
        </mxCell>
        <mxCell id="sUd_lcswhvSATSNBrKiN-128" value="4" style="shape=partialRectangle;connectable=0;strokeColor=inherit;overflow=hidden;fillColor=none;top=0;left=0;bottom=0;right=0;pointerEvents=1;fontSize=14;fontFamily=Times New Roman;fontColor=default;labelBackgroundColor=default;" parent="sUd_lcswhvSATSNBrKiN-127" vertex="1">
          <mxGeometry width="60" height="40" as="geometry">
            <mxRectangle width="60" height="40" as="alternateBounds" />
          </mxGeometry>
        </mxCell>
        <mxCell id="sUd_lcswhvSATSNBrKiN-129" value="0.9" style="shape=partialRectangle;connectable=0;strokeColor=inherit;overflow=hidden;fillColor=none;top=0;left=0;bottom=0;right=0;pointerEvents=1;fontSize=14;fontFamily=Times New Roman;fontColor=default;labelBackgroundColor=default;" parent="sUd_lcswhvSATSNBrKiN-127" vertex="1">
          <mxGeometry x="60" width="60" height="40" as="geometry">
            <mxRectangle width="60" height="40" as="alternateBounds" />
          </mxGeometry>
        </mxCell>
        <mxCell id="sUd_lcswhvSATSNBrKiN-130" value="5" style="shape=partialRectangle;connectable=0;strokeColor=inherit;overflow=hidden;fillColor=none;top=0;left=0;bottom=0;right=0;pointerEvents=1;fontSize=14;fontFamily=Times New Roman;fontColor=default;labelBackgroundColor=default;" parent="sUd_lcswhvSATSNBrKiN-127" vertex="1">
          <mxGeometry x="120" width="60" height="40" as="geometry">
            <mxRectangle width="60" height="40" as="alternateBounds" />
          </mxGeometry>
        </mxCell>
        <mxCell id="BO8y0D7VBQcDdKsYQeH7-83" value="15" style="shape=partialRectangle;connectable=0;strokeColor=inherit;overflow=hidden;fillColor=none;top=0;left=0;bottom=0;right=0;pointerEvents=1;fontSize=14;fontFamily=Times New Roman;fontColor=default;labelBackgroundColor=default;" parent="sUd_lcswhvSATSNBrKiN-127" vertex="1">
          <mxGeometry x="180" width="60" height="40" as="geometry">
            <mxRectangle width="60" height="40" as="alternateBounds" />
          </mxGeometry>
        </mxCell>
        <mxCell id="sUd_lcswhvSATSNBrKiN-209" value="" style="shape=tableRow;horizontal=0;startSize=0;swimlaneHead=0;swimlaneBody=0;strokeColor=inherit;top=0;left=0;bottom=0;right=0;collapsible=0;dropTarget=0;fillColor=none;points=[[0,0.5],[1,0.5]];portConstraint=eastwest;fontSize=16;fontColor=default;labelBackgroundColor=default;" parent="sUd_lcswhvSATSNBrKiN-110" vertex="1">
          <mxGeometry y="200" width="240" height="40" as="geometry" />
        </mxCell>
        <mxCell id="sUd_lcswhvSATSNBrKiN-210" value="5" style="shape=partialRectangle;connectable=0;strokeColor=inherit;overflow=hidden;fillColor=none;top=0;left=0;bottom=0;right=0;pointerEvents=1;fontSize=14;fontFamily=Times New Roman;fontColor=default;labelBackgroundColor=default;" parent="sUd_lcswhvSATSNBrKiN-209" vertex="1">
          <mxGeometry width="60" height="40" as="geometry">
            <mxRectangle width="60" height="40" as="alternateBounds" />
          </mxGeometry>
        </mxCell>
        <mxCell id="sUd_lcswhvSATSNBrKiN-211" value="0.9" style="shape=partialRectangle;connectable=0;strokeColor=inherit;overflow=hidden;fillColor=none;top=0;left=0;bottom=0;right=0;pointerEvents=1;fontSize=14;fontFamily=Times New Roman;fontColor=default;labelBackgroundColor=default;" parent="sUd_lcswhvSATSNBrKiN-209" vertex="1">
          <mxGeometry x="60" width="60" height="40" as="geometry">
            <mxRectangle width="60" height="40" as="alternateBounds" />
          </mxGeometry>
        </mxCell>
        <mxCell id="sUd_lcswhvSATSNBrKiN-212" value="3" style="shape=partialRectangle;connectable=0;strokeColor=inherit;overflow=hidden;fillColor=none;top=0;left=0;bottom=0;right=0;pointerEvents=1;fontSize=14;fontFamily=Times New Roman;fontColor=default;labelBackgroundColor=default;" parent="sUd_lcswhvSATSNBrKiN-209" vertex="1">
          <mxGeometry x="120" width="60" height="40" as="geometry">
            <mxRectangle width="60" height="40" as="alternateBounds" />
          </mxGeometry>
        </mxCell>
        <mxCell id="BO8y0D7VBQcDdKsYQeH7-84" value="23" style="shape=partialRectangle;connectable=0;strokeColor=inherit;overflow=hidden;fillColor=none;top=0;left=0;bottom=0;right=0;pointerEvents=1;fontSize=14;fontFamily=Times New Roman;fontColor=default;labelBackgroundColor=default;" parent="sUd_lcswhvSATSNBrKiN-209" vertex="1">
          <mxGeometry x="180" width="60" height="40" as="geometry">
            <mxRectangle width="60" height="40" as="alternateBounds" />
          </mxGeometry>
        </mxCell>
        <mxCell id="sUd_lcswhvSATSNBrKiN-131" value="Max: 0.9" style="text;strokeColor=none;fillColor=none;align=center;verticalAlign=middle;rounded=0;fontColor=default;labelBackgroundColor=default;" parent="nQx1I_NApKGMU57yptKq-1" vertex="1">
          <mxGeometry x="859" y="28" width="60" height="30" as="geometry" />
        </mxCell>
        <mxCell id="sUd_lcswhvSATSNBrKiN-132" value="Utility: 18" style="text;strokeColor=none;fillColor=none;align=center;verticalAlign=middle;rounded=0;fontColor=default;labelBackgroundColor=default;" parent="nQx1I_NApKGMU57yptKq-1" vertex="1">
          <mxGeometry x="919" y="28" width="60" height="30" as="geometry" />
        </mxCell>
        <mxCell id="sUd_lcswhvSATSNBrKiN-133" value="" style="endArrow=none;rounded=0;entryX=0.5;entryY=1;entryDx=0;entryDy=0;exitX=0.002;exitY=0.03;exitDx=0;exitDy=0;exitPerimeter=0;fontColor=default;labelBackgroundColor=default;" parent="nQx1I_NApKGMU57yptKq-1" source="sUd_lcswhvSATSNBrKiN-111" target="sUd_lcswhvSATSNBrKiN-109" edge="1">
          <mxGeometry width="50" height="50" relative="1" as="geometry">
            <mxPoint x="789" y="48" as="sourcePoint" />
            <mxPoint x="839" y="8" as="targetPoint" />
          </mxGeometry>
        </mxCell>
        <mxCell id="sUd_lcswhvSATSNBrKiN-134" value="D: 3.3Â " style="rounded=0;fontFamily=Times New Roman;fontColor=default;labelBackgroundColor=default;" parent="nQx1I_NApKGMU57yptKq-1" vertex="1">
          <mxGeometry y="367" width="70" height="30" as="geometry" />
        </mxCell>
        <mxCell id="sUd_lcswhvSATSNBrKiN-135" value="" style="shape=table;startSize=0;container=1;collapsible=0;childLayout=tableLayout;fontSize=14;fontFamily=Times New Roman;fontColor=default;labelBackgroundColor=default;" parent="nQx1I_NApKGMU57yptKq-1" vertex="1">
          <mxGeometry x="52" y="425" width="240" height="240" as="geometry" />
        </mxCell>
        <mxCell id="sUd_lcswhvSATSNBrKiN-136" value="" style="shape=tableRow;horizontal=0;startSize=0;swimlaneHead=0;swimlaneBody=0;strokeColor=inherit;top=0;left=0;bottom=0;right=0;collapsible=0;dropTarget=0;fillColor=none;points=[[0,0.5],[1,0.5]];portConstraint=eastwest;fontSize=16;fontColor=default;labelBackgroundColor=default;" parent="sUd_lcswhvSATSNBrKiN-135" vertex="1">
          <mxGeometry width="240" height="40" as="geometry" />
        </mxCell>
        <mxCell id="sUd_lcswhvSATSNBrKiN-137" value="TID" style="shape=partialRectangle;connectable=0;strokeColor=inherit;overflow=hidden;fillColor=none;top=0;left=0;bottom=0;right=0;pointerEvents=1;fontSize=14;fontFamily=Times New Roman;fontColor=default;labelBackgroundColor=default;" parent="sUd_lcswhvSATSNBrKiN-136" vertex="1">
          <mxGeometry width="60" height="40" as="geometry">
            <mxRectangle width="60" height="40" as="alternateBounds" />
          </mxGeometry>
        </mxCell>
        <mxCell id="sUd_lcswhvSATSNBrKiN-138" value="Prob" style="shape=partialRectangle;connectable=0;strokeColor=inherit;overflow=hidden;fillColor=none;top=0;left=0;bottom=0;right=0;pointerEvents=1;fontSize=14;fontFamily=Times New Roman;fontColor=default;labelBackgroundColor=default;" parent="sUd_lcswhvSATSNBrKiN-136" vertex="1">
          <mxGeometry x="60" width="60" height="40" as="geometry">
            <mxRectangle width="60" height="40" as="alternateBounds" />
          </mxGeometry>
        </mxCell>
        <mxCell id="sUd_lcswhvSATSNBrKiN-139" value="Uti" style="shape=partialRectangle;connectable=0;strokeColor=inherit;overflow=hidden;fillColor=none;top=0;left=0;bottom=0;right=0;pointerEvents=1;fontSize=14;fontFamily=Times New Roman;fontColor=default;labelBackgroundColor=default;" parent="sUd_lcswhvSATSNBrKiN-136" vertex="1">
          <mxGeometry x="120" width="60" height="40" as="geometry">
            <mxRectangle width="60" height="40" as="alternateBounds" />
          </mxGeometry>
        </mxCell>
        <mxCell id="BO8y0D7VBQcDdKsYQeH7-85" value="tu" style="shape=partialRectangle;connectable=0;strokeColor=inherit;overflow=hidden;fillColor=none;top=0;left=0;bottom=0;right=0;pointerEvents=1;fontSize=14;fontFamily=Times New Roman;fontColor=default;labelBackgroundColor=default;" parent="sUd_lcswhvSATSNBrKiN-136" vertex="1">
          <mxGeometry x="180" width="60" height="40" as="geometry">
            <mxRectangle width="60" height="40" as="alternateBounds" />
          </mxGeometry>
        </mxCell>
        <mxCell id="sUd_lcswhvSATSNBrKiN-140" value="" style="shape=tableRow;horizontal=0;startSize=0;swimlaneHead=0;swimlaneBody=0;strokeColor=inherit;top=0;left=0;bottom=0;right=0;collapsible=0;dropTarget=0;fillColor=none;points=[[0,0.5],[1,0.5]];portConstraint=eastwest;fontSize=16;fontColor=default;labelBackgroundColor=default;" parent="sUd_lcswhvSATSNBrKiN-135" vertex="1">
          <mxGeometry y="40" width="240" height="40" as="geometry" />
        </mxCell>
        <mxCell id="sUd_lcswhvSATSNBrKiN-141" value="1" style="shape=partialRectangle;connectable=0;strokeColor=inherit;overflow=hidden;fillColor=none;top=0;left=0;bottom=0;right=0;pointerEvents=1;fontSize=14;fontFamily=Times New Roman;fontColor=default;labelBackgroundColor=default;" parent="sUd_lcswhvSATSNBrKiN-140" vertex="1">
          <mxGeometry width="60" height="40" as="geometry">
            <mxRectangle width="60" height="40" as="alternateBounds" />
          </mxGeometry>
        </mxCell>
        <mxCell id="sUd_lcswhvSATSNBrKiN-142" value="0.6" style="shape=partialRectangle;connectable=0;strokeColor=inherit;overflow=hidden;fillColor=none;top=0;left=0;bottom=0;right=0;pointerEvents=1;fontSize=14;fontFamily=Times New Roman;fontColor=default;labelBackgroundColor=default;" parent="sUd_lcswhvSATSNBrKiN-140" vertex="1">
          <mxGeometry x="60" width="60" height="40" as="geometry">
            <mxRectangle width="60" height="40" as="alternateBounds" />
          </mxGeometry>
        </mxCell>
        <mxCell id="sUd_lcswhvSATSNBrKiN-143" value="5" style="shape=partialRectangle;connectable=0;strokeColor=inherit;overflow=hidden;fillColor=none;top=0;left=0;bottom=0;right=0;pointerEvents=1;fontSize=14;fontFamily=Times New Roman;fontColor=default;labelBackgroundColor=default;" parent="sUd_lcswhvSATSNBrKiN-140" vertex="1">
          <mxGeometry x="120" width="60" height="40" as="geometry">
            <mxRectangle width="60" height="40" as="alternateBounds" />
          </mxGeometry>
        </mxCell>
        <mxCell id="BO8y0D7VBQcDdKsYQeH7-86" value="9" style="shape=partialRectangle;connectable=0;strokeColor=inherit;overflow=hidden;fillColor=none;top=0;left=0;bottom=0;right=0;pointerEvents=1;fontSize=14;fontFamily=Times New Roman;fontColor=default;labelBackgroundColor=default;" parent="sUd_lcswhvSATSNBrKiN-140" vertex="1">
          <mxGeometry x="180" width="60" height="40" as="geometry">
            <mxRectangle width="60" height="40" as="alternateBounds" />
          </mxGeometry>
        </mxCell>
        <mxCell id="sUd_lcswhvSATSNBrKiN-144" value="" style="shape=tableRow;horizontal=0;startSize=0;swimlaneHead=0;swimlaneBody=0;strokeColor=inherit;top=0;left=0;bottom=0;right=0;collapsible=0;dropTarget=0;fillColor=none;points=[[0,0.5],[1,0.5]];portConstraint=eastwest;fontSize=16;fontColor=default;labelBackgroundColor=default;" parent="sUd_lcswhvSATSNBrKiN-135" vertex="1">
          <mxGeometry y="80" width="240" height="40" as="geometry" />
        </mxCell>
        <mxCell id="sUd_lcswhvSATSNBrKiN-145" value="2" style="shape=partialRectangle;connectable=0;strokeColor=inherit;overflow=hidden;fillColor=none;top=0;left=0;bottom=0;right=0;pointerEvents=1;fontSize=14;fontFamily=Times New Roman;fontColor=default;labelBackgroundColor=default;" parent="sUd_lcswhvSATSNBrKiN-144" vertex="1">
          <mxGeometry width="60" height="40" as="geometry">
            <mxRectangle width="60" height="40" as="alternateBounds" />
          </mxGeometry>
        </mxCell>
        <mxCell id="sUd_lcswhvSATSNBrKiN-146" value="0.6" style="shape=partialRectangle;connectable=0;strokeColor=inherit;overflow=hidden;fillColor=none;top=0;left=0;bottom=0;right=0;pointerEvents=1;fontSize=14;fontFamily=Times New Roman;fontColor=default;labelBackgroundColor=default;" parent="sUd_lcswhvSATSNBrKiN-144" vertex="1">
          <mxGeometry x="60" width="60" height="40" as="geometry">
            <mxRectangle width="60" height="40" as="alternateBounds" />
          </mxGeometry>
        </mxCell>
        <mxCell id="sUd_lcswhvSATSNBrKiN-147" value="5" style="shape=partialRectangle;connectable=0;strokeColor=inherit;overflow=hidden;fillColor=none;top=0;left=0;bottom=0;right=0;pointerEvents=1;fontSize=14;fontFamily=Times New Roman;fontColor=default;labelBackgroundColor=default;" parent="sUd_lcswhvSATSNBrKiN-144" vertex="1">
          <mxGeometry x="120" width="60" height="40" as="geometry">
            <mxRectangle width="60" height="40" as="alternateBounds" />
          </mxGeometry>
        </mxCell>
        <mxCell id="BO8y0D7VBQcDdKsYQeH7-87" value="20" style="shape=partialRectangle;connectable=0;strokeColor=inherit;overflow=hidden;fillColor=none;top=0;left=0;bottom=0;right=0;pointerEvents=1;fontSize=14;fontFamily=Times New Roman;fontColor=default;labelBackgroundColor=default;" parent="sUd_lcswhvSATSNBrKiN-144" vertex="1">
          <mxGeometry x="180" width="60" height="40" as="geometry">
            <mxRectangle width="60" height="40" as="alternateBounds" />
          </mxGeometry>
        </mxCell>
        <mxCell id="sUd_lcswhvSATSNBrKiN-148" value="" style="shape=tableRow;horizontal=0;startSize=0;swimlaneHead=0;swimlaneBody=0;strokeColor=inherit;top=0;left=0;bottom=0;right=0;collapsible=0;dropTarget=0;fillColor=none;points=[[0,0.5],[1,0.5]];portConstraint=eastwest;fontSize=16;fontColor=default;labelBackgroundColor=default;" parent="sUd_lcswhvSATSNBrKiN-135" vertex="1">
          <mxGeometry y="120" width="240" height="40" as="geometry" />
        </mxCell>
        <mxCell id="sUd_lcswhvSATSNBrKiN-149" value="3" style="shape=partialRectangle;connectable=0;strokeColor=inherit;overflow=hidden;fillColor=none;top=0;left=0;bottom=0;right=0;pointerEvents=1;fontSize=14;fontFamily=Times New Roman;fontColor=default;labelBackgroundColor=default;" parent="sUd_lcswhvSATSNBrKiN-148" vertex="1">
          <mxGeometry width="60" height="40" as="geometry">
            <mxRectangle width="60" height="40" as="alternateBounds" />
          </mxGeometry>
        </mxCell>
        <mxCell id="sUd_lcswhvSATSNBrKiN-150" value="0.9" style="shape=partialRectangle;connectable=0;strokeColor=inherit;overflow=hidden;fillColor=none;top=0;left=0;bottom=0;right=0;pointerEvents=1;fontSize=14;fontFamily=Times New Roman;fontColor=default;labelBackgroundColor=default;" parent="sUd_lcswhvSATSNBrKiN-148" vertex="1">
          <mxGeometry x="60" width="60" height="40" as="geometry">
            <mxRectangle width="60" height="40" as="alternateBounds" />
          </mxGeometry>
        </mxCell>
        <mxCell id="sUd_lcswhvSATSNBrKiN-151" value="5" style="shape=partialRectangle;connectable=0;strokeColor=inherit;overflow=hidden;fillColor=none;top=0;left=0;bottom=0;right=0;pointerEvents=1;fontSize=14;fontFamily=Times New Roman;fontColor=default;labelBackgroundColor=default;" parent="sUd_lcswhvSATSNBrKiN-148" vertex="1">
          <mxGeometry x="120" width="60" height="40" as="geometry">
            <mxRectangle width="60" height="40" as="alternateBounds" />
          </mxGeometry>
        </mxCell>
        <mxCell id="BO8y0D7VBQcDdKsYQeH7-88" value="17" style="shape=partialRectangle;connectable=0;strokeColor=inherit;overflow=hidden;fillColor=none;top=0;left=0;bottom=0;right=0;pointerEvents=1;fontSize=14;fontFamily=Times New Roman;fontColor=default;labelBackgroundColor=default;" parent="sUd_lcswhvSATSNBrKiN-148" vertex="1">
          <mxGeometry x="180" width="60" height="40" as="geometry">
            <mxRectangle width="60" height="40" as="alternateBounds" />
          </mxGeometry>
        </mxCell>
        <mxCell id="sUd_lcswhvSATSNBrKiN-152" value="" style="shape=tableRow;horizontal=0;startSize=0;swimlaneHead=0;swimlaneBody=0;strokeColor=inherit;top=0;left=0;bottom=0;right=0;collapsible=0;dropTarget=0;fillColor=none;points=[[0,0.5],[1,0.5]];portConstraint=eastwest;fontSize=16;fontColor=default;labelBackgroundColor=default;" parent="sUd_lcswhvSATSNBrKiN-135" vertex="1">
          <mxGeometry y="160" width="240" height="40" as="geometry" />
        </mxCell>
        <mxCell id="sUd_lcswhvSATSNBrKiN-153" value="5" style="shape=partialRectangle;connectable=0;strokeColor=inherit;overflow=hidden;fillColor=none;top=0;left=0;bottom=0;right=0;pointerEvents=1;fontSize=14;fontFamily=Times New Roman;fontColor=default;labelBackgroundColor=default;" parent="sUd_lcswhvSATSNBrKiN-152" vertex="1">
          <mxGeometry width="60" height="40" as="geometry">
            <mxRectangle width="60" height="40" as="alternateBounds" />
          </mxGeometry>
        </mxCell>
        <mxCell id="sUd_lcswhvSATSNBrKiN-154" value="0.3" style="shape=partialRectangle;connectable=0;strokeColor=inherit;overflow=hidden;fillColor=none;top=0;left=0;bottom=0;right=0;pointerEvents=1;fontSize=14;fontFamily=Times New Roman;fontColor=default;labelBackgroundColor=default;" parent="sUd_lcswhvSATSNBrKiN-152" vertex="1">
          <mxGeometry x="60" width="60" height="40" as="geometry">
            <mxRectangle width="60" height="40" as="alternateBounds" />
          </mxGeometry>
        </mxCell>
        <mxCell id="sUd_lcswhvSATSNBrKiN-155" value="10" style="shape=partialRectangle;connectable=0;strokeColor=inherit;overflow=hidden;fillColor=none;top=0;left=0;bottom=0;right=0;pointerEvents=1;fontSize=14;fontFamily=Times New Roman;fontColor=default;labelBackgroundColor=default;" parent="sUd_lcswhvSATSNBrKiN-152" vertex="1">
          <mxGeometry x="120" width="60" height="40" as="geometry">
            <mxRectangle width="60" height="40" as="alternateBounds" />
          </mxGeometry>
        </mxCell>
        <mxCell id="BO8y0D7VBQcDdKsYQeH7-89" value="23" style="shape=partialRectangle;connectable=0;strokeColor=inherit;overflow=hidden;fillColor=none;top=0;left=0;bottom=0;right=0;pointerEvents=1;fontSize=14;fontFamily=Times New Roman;fontColor=default;labelBackgroundColor=default;" parent="sUd_lcswhvSATSNBrKiN-152" vertex="1">
          <mxGeometry x="180" width="60" height="40" as="geometry">
            <mxRectangle width="60" height="40" as="alternateBounds" />
          </mxGeometry>
        </mxCell>
        <mxCell id="sUd_lcswhvSATSNBrKiN-238" value="" style="shape=tableRow;horizontal=0;startSize=0;swimlaneHead=0;swimlaneBody=0;strokeColor=inherit;top=0;left=0;bottom=0;right=0;collapsible=0;dropTarget=0;fillColor=none;points=[[0,0.5],[1,0.5]];portConstraint=eastwest;fontSize=16;fontColor=default;labelBackgroundColor=default;" parent="sUd_lcswhvSATSNBrKiN-135" vertex="1">
          <mxGeometry y="200" width="240" height="40" as="geometry" />
        </mxCell>
        <mxCell id="sUd_lcswhvSATSNBrKiN-239" value="6" style="shape=partialRectangle;connectable=0;strokeColor=inherit;overflow=hidden;fillColor=none;top=0;left=0;bottom=0;right=0;pointerEvents=1;fontSize=14;fontFamily=Times New Roman;fontColor=default;labelBackgroundColor=default;" parent="sUd_lcswhvSATSNBrKiN-238" vertex="1">
          <mxGeometry width="60" height="40" as="geometry">
            <mxRectangle width="60" height="40" as="alternateBounds" />
          </mxGeometry>
        </mxCell>
        <mxCell id="sUd_lcswhvSATSNBrKiN-240" value="0.9" style="shape=partialRectangle;connectable=0;strokeColor=inherit;overflow=hidden;fillColor=none;top=0;left=0;bottom=0;right=0;pointerEvents=1;fontSize=14;fontFamily=Times New Roman;fontColor=default;labelBackgroundColor=default;" parent="sUd_lcswhvSATSNBrKiN-238" vertex="1">
          <mxGeometry x="60" width="60" height="40" as="geometry">
            <mxRectangle width="60" height="40" as="alternateBounds" />
          </mxGeometry>
        </mxCell>
        <mxCell id="sUd_lcswhvSATSNBrKiN-241" value="5" style="shape=partialRectangle;connectable=0;strokeColor=inherit;overflow=hidden;fillColor=none;top=0;left=0;bottom=0;right=0;pointerEvents=1;fontSize=14;fontFamily=Times New Roman;fontColor=default;labelBackgroundColor=default;" parent="sUd_lcswhvSATSNBrKiN-238" vertex="1">
          <mxGeometry x="120" width="60" height="40" as="geometry">
            <mxRectangle width="60" height="40" as="alternateBounds" />
          </mxGeometry>
        </mxCell>
        <mxCell id="BO8y0D7VBQcDdKsYQeH7-90" value="13" style="shape=partialRectangle;connectable=0;strokeColor=inherit;overflow=hidden;fillColor=none;top=0;left=0;bottom=0;right=0;pointerEvents=1;fontSize=14;fontFamily=Times New Roman;fontColor=default;labelBackgroundColor=default;" parent="sUd_lcswhvSATSNBrKiN-238" vertex="1">
          <mxGeometry x="180" width="60" height="40" as="geometry">
            <mxRectangle width="60" height="40" as="alternateBounds" />
          </mxGeometry>
        </mxCell>
        <mxCell id="sUd_lcswhvSATSNBrKiN-156" value="Max: 0.9" style="text;strokeColor=none;fillColor=none;align=center;verticalAlign=middle;rounded=0;fontColor=default;labelBackgroundColor=default;" parent="nQx1I_NApKGMU57yptKq-1" vertex="1">
          <mxGeometry x="112" y="395" width="60" height="30" as="geometry" />
        </mxCell>
        <mxCell id="sUd_lcswhvSATSNBrKiN-157" value="Utility: 30" style="text;strokeColor=none;fillColor=none;align=center;verticalAlign=middle;rounded=0;fontColor=default;labelBackgroundColor=default;" parent="nQx1I_NApKGMU57yptKq-1" vertex="1">
          <mxGeometry x="172" y="395" width="60" height="30" as="geometry" />
        </mxCell>
        <mxCell id="sUd_lcswhvSATSNBrKiN-158" value="" style="endArrow=none;rounded=0;entryX=0.5;entryY=1;entryDx=0;entryDy=0;exitX=0.002;exitY=0.03;exitDx=0;exitDy=0;exitPerimeter=0;fontColor=default;labelBackgroundColor=default;" parent="nQx1I_NApKGMU57yptKq-1" source="sUd_lcswhvSATSNBrKiN-136" target="sUd_lcswhvSATSNBrKiN-134" edge="1">
          <mxGeometry width="50" height="50" relative="1" as="geometry">
            <mxPoint x="42" y="415" as="sourcePoint" />
            <mxPoint x="92" y="375" as="targetPoint" />
          </mxGeometry>
        </mxCell>
        <mxCell id="sUd_lcswhvSATSNBrKiN-184" value="F: 1.3Â " style="rounded=0;fontFamily=Times New Roman;fontColor=default;labelBackgroundColor=default;" parent="nQx1I_NApKGMU57yptKq-1" vertex="1">
          <mxGeometry x="753" y="359" width="70" height="30" as="geometry" />
        </mxCell>
        <mxCell id="sUd_lcswhvSATSNBrKiN-185" value="" style="shape=table;startSize=0;container=1;collapsible=0;childLayout=tableLayout;fontSize=14;fontFamily=Times New Roman;fontColor=default;labelBackgroundColor=default;" parent="nQx1I_NApKGMU57yptKq-1" vertex="1">
          <mxGeometry x="805" y="417" width="240" height="160" as="geometry" />
        </mxCell>
        <mxCell id="sUd_lcswhvSATSNBrKiN-186" value="" style="shape=tableRow;horizontal=0;startSize=0;swimlaneHead=0;swimlaneBody=0;strokeColor=inherit;top=0;left=0;bottom=0;right=0;collapsible=0;dropTarget=0;fillColor=none;points=[[0,0.5],[1,0.5]];portConstraint=eastwest;fontSize=16;fontColor=default;labelBackgroundColor=default;" parent="sUd_lcswhvSATSNBrKiN-185" vertex="1">
          <mxGeometry width="240" height="40" as="geometry" />
        </mxCell>
        <mxCell id="sUd_lcswhvSATSNBrKiN-187" value="TID" style="shape=partialRectangle;connectable=0;strokeColor=inherit;overflow=hidden;fillColor=none;top=0;left=0;bottom=0;right=0;pointerEvents=1;fontSize=14;fontFamily=Times New Roman;fontColor=default;labelBackgroundColor=default;" parent="sUd_lcswhvSATSNBrKiN-186" vertex="1">
          <mxGeometry width="60" height="40" as="geometry">
            <mxRectangle width="60" height="40" as="alternateBounds" />
          </mxGeometry>
        </mxCell>
        <mxCell id="sUd_lcswhvSATSNBrKiN-188" value="Prob" style="shape=partialRectangle;connectable=0;strokeColor=inherit;overflow=hidden;fillColor=none;top=0;left=0;bottom=0;right=0;pointerEvents=1;fontSize=14;fontFamily=Times New Roman;fontColor=default;labelBackgroundColor=default;" parent="sUd_lcswhvSATSNBrKiN-186" vertex="1">
          <mxGeometry x="60" width="60" height="40" as="geometry">
            <mxRectangle width="60" height="40" as="alternateBounds" />
          </mxGeometry>
        </mxCell>
        <mxCell id="sUd_lcswhvSATSNBrKiN-189" value="Uti" style="shape=partialRectangle;connectable=0;strokeColor=inherit;overflow=hidden;fillColor=none;top=0;left=0;bottom=0;right=0;pointerEvents=1;fontSize=14;fontFamily=Times New Roman;fontColor=default;labelBackgroundColor=default;" parent="sUd_lcswhvSATSNBrKiN-186" vertex="1">
          <mxGeometry x="120" width="60" height="40" as="geometry">
            <mxRectangle width="60" height="40" as="alternateBounds" />
          </mxGeometry>
        </mxCell>
        <mxCell id="BO8y0D7VBQcDdKsYQeH7-95" value="tu" style="shape=partialRectangle;connectable=0;strokeColor=inherit;overflow=hidden;fillColor=none;top=0;left=0;bottom=0;right=0;pointerEvents=1;fontSize=14;fontFamily=Times New Roman;fontColor=default;labelBackgroundColor=default;" parent="sUd_lcswhvSATSNBrKiN-186" vertex="1">
          <mxGeometry x="180" width="60" height="40" as="geometry">
            <mxRectangle width="60" height="40" as="alternateBounds" />
          </mxGeometry>
        </mxCell>
        <mxCell id="sUd_lcswhvSATSNBrKiN-190" value="" style="shape=tableRow;horizontal=0;startSize=0;swimlaneHead=0;swimlaneBody=0;strokeColor=inherit;top=0;left=0;bottom=0;right=0;collapsible=0;dropTarget=0;fillColor=none;points=[[0,0.5],[1,0.5]];portConstraint=eastwest;fontSize=16;fontColor=default;labelBackgroundColor=default;" parent="sUd_lcswhvSATSNBrKiN-185" vertex="1">
          <mxGeometry y="40" width="240" height="40" as="geometry" />
        </mxCell>
        <mxCell id="sUd_lcswhvSATSNBrKiN-191" value="3" style="shape=partialRectangle;connectable=0;strokeColor=inherit;overflow=hidden;fillColor=none;top=0;left=0;bottom=0;right=0;pointerEvents=1;fontSize=14;fontFamily=Times New Roman;fontColor=default;labelBackgroundColor=default;" parent="sUd_lcswhvSATSNBrKiN-190" vertex="1">
          <mxGeometry width="60" height="40" as="geometry">
            <mxRectangle width="60" height="40" as="alternateBounds" />
          </mxGeometry>
        </mxCell>
        <mxCell id="sUd_lcswhvSATSNBrKiN-192" value="0.2" style="shape=partialRectangle;connectable=0;strokeColor=inherit;overflow=hidden;fillColor=none;top=0;left=0;bottom=0;right=0;pointerEvents=1;fontSize=14;fontFamily=Times New Roman;fontColor=default;labelBackgroundColor=default;" parent="sUd_lcswhvSATSNBrKiN-190" vertex="1">
          <mxGeometry x="60" width="60" height="40" as="geometry">
            <mxRectangle width="60" height="40" as="alternateBounds" />
          </mxGeometry>
        </mxCell>
        <mxCell id="sUd_lcswhvSATSNBrKiN-193" value="4" style="shape=partialRectangle;connectable=0;strokeColor=inherit;overflow=hidden;fillColor=none;top=0;left=0;bottom=0;right=0;pointerEvents=1;fontSize=14;fontFamily=Times New Roman;fontColor=default;labelBackgroundColor=default;" parent="sUd_lcswhvSATSNBrKiN-190" vertex="1">
          <mxGeometry x="120" width="60" height="40" as="geometry">
            <mxRectangle width="60" height="40" as="alternateBounds" />
          </mxGeometry>
        </mxCell>
        <mxCell id="BO8y0D7VBQcDdKsYQeH7-96" value="17" style="shape=partialRectangle;connectable=0;strokeColor=inherit;overflow=hidden;fillColor=none;top=0;left=0;bottom=0;right=0;pointerEvents=1;fontSize=14;fontFamily=Times New Roman;fontColor=default;labelBackgroundColor=default;" parent="sUd_lcswhvSATSNBrKiN-190" vertex="1">
          <mxGeometry x="180" width="60" height="40" as="geometry">
            <mxRectangle width="60" height="40" as="alternateBounds" />
          </mxGeometry>
        </mxCell>
        <mxCell id="sUd_lcswhvSATSNBrKiN-194" value="" style="shape=tableRow;horizontal=0;startSize=0;swimlaneHead=0;swimlaneBody=0;strokeColor=inherit;top=0;left=0;bottom=0;right=0;collapsible=0;dropTarget=0;fillColor=none;points=[[0,0.5],[1,0.5]];portConstraint=eastwest;fontSize=16;fontColor=default;labelBackgroundColor=default;" parent="sUd_lcswhvSATSNBrKiN-185" vertex="1">
          <mxGeometry y="80" width="240" height="40" as="geometry" />
        </mxCell>
        <mxCell id="sUd_lcswhvSATSNBrKiN-195" value="4" style="shape=partialRectangle;connectable=0;strokeColor=inherit;overflow=hidden;fillColor=none;top=0;left=0;bottom=0;right=0;pointerEvents=1;fontSize=14;fontFamily=Times New Roman;fontColor=default;labelBackgroundColor=default;" parent="sUd_lcswhvSATSNBrKiN-194" vertex="1">
          <mxGeometry width="60" height="40" as="geometry">
            <mxRectangle width="60" height="40" as="alternateBounds" />
          </mxGeometry>
        </mxCell>
        <mxCell id="sUd_lcswhvSATSNBrKiN-196" value="0.5" style="shape=partialRectangle;connectable=0;strokeColor=inherit;overflow=hidden;fillColor=none;top=0;left=0;bottom=0;right=0;pointerEvents=1;fontSize=14;fontFamily=Times New Roman;fontColor=default;labelBackgroundColor=default;" parent="sUd_lcswhvSATSNBrKiN-194" vertex="1">
          <mxGeometry x="60" width="60" height="40" as="geometry">
            <mxRectangle width="60" height="40" as="alternateBounds" />
          </mxGeometry>
        </mxCell>
        <mxCell id="sUd_lcswhvSATSNBrKiN-197" value="6" style="shape=partialRectangle;connectable=0;strokeColor=inherit;overflow=hidden;fillColor=none;top=0;left=0;bottom=0;right=0;pointerEvents=1;fontSize=14;fontFamily=Times New Roman;fontColor=default;labelBackgroundColor=default;" parent="sUd_lcswhvSATSNBrKiN-194" vertex="1">
          <mxGeometry x="120" width="60" height="40" as="geometry">
            <mxRectangle width="60" height="40" as="alternateBounds" />
          </mxGeometry>
        </mxCell>
        <mxCell id="BO8y0D7VBQcDdKsYQeH7-97" value="23" style="shape=partialRectangle;connectable=0;strokeColor=inherit;overflow=hidden;fillColor=none;top=0;left=0;bottom=0;right=0;pointerEvents=1;fontSize=14;fontFamily=Times New Roman;fontColor=default;labelBackgroundColor=default;" parent="sUd_lcswhvSATSNBrKiN-194" vertex="1">
          <mxGeometry x="180" width="60" height="40" as="geometry">
            <mxRectangle width="60" height="40" as="alternateBounds" />
          </mxGeometry>
        </mxCell>
        <mxCell id="sUd_lcswhvSATSNBrKiN-198" value="" style="shape=tableRow;horizontal=0;startSize=0;swimlaneHead=0;swimlaneBody=0;strokeColor=inherit;top=0;left=0;bottom=0;right=0;collapsible=0;dropTarget=0;fillColor=none;points=[[0,0.5],[1,0.5]];portConstraint=eastwest;fontSize=16;fontColor=default;labelBackgroundColor=default;" parent="sUd_lcswhvSATSNBrKiN-185" vertex="1">
          <mxGeometry y="120" width="240" height="40" as="geometry" />
        </mxCell>
        <mxCell id="sUd_lcswhvSATSNBrKiN-199" value="6" style="shape=partialRectangle;connectable=0;strokeColor=inherit;overflow=hidden;fillColor=none;top=0;left=0;bottom=0;right=0;pointerEvents=1;fontSize=14;fontFamily=Times New Roman;fontColor=default;labelBackgroundColor=default;" parent="sUd_lcswhvSATSNBrKiN-198" vertex="1">
          <mxGeometry width="60" height="40" as="geometry">
            <mxRectangle width="60" height="40" as="alternateBounds" />
          </mxGeometry>
        </mxCell>
        <mxCell id="sUd_lcswhvSATSNBrKiN-200" value="0.6" style="shape=partialRectangle;connectable=0;strokeColor=inherit;overflow=hidden;fillColor=none;top=0;left=0;bottom=0;right=0;pointerEvents=1;fontSize=14;fontFamily=Times New Roman;fontColor=default;labelBackgroundColor=default;" parent="sUd_lcswhvSATSNBrKiN-198" vertex="1">
          <mxGeometry x="60" width="60" height="40" as="geometry">
            <mxRectangle width="60" height="40" as="alternateBounds" />
          </mxGeometry>
        </mxCell>
        <mxCell id="sUd_lcswhvSATSNBrKiN-201" value="4" style="shape=partialRectangle;connectable=0;strokeColor=inherit;overflow=hidden;fillColor=none;top=0;left=0;bottom=0;right=0;pointerEvents=1;fontSize=14;fontFamily=Times New Roman;fontColor=default;labelBackgroundColor=default;" parent="sUd_lcswhvSATSNBrKiN-198" vertex="1">
          <mxGeometry x="120" width="60" height="40" as="geometry">
            <mxRectangle width="60" height="40" as="alternateBounds" />
          </mxGeometry>
        </mxCell>
        <mxCell id="BO8y0D7VBQcDdKsYQeH7-98" value="13" style="shape=partialRectangle;connectable=0;strokeColor=inherit;overflow=hidden;fillColor=none;top=0;left=0;bottom=0;right=0;pointerEvents=1;fontSize=14;fontFamily=Times New Roman;fontColor=default;labelBackgroundColor=default;" parent="sUd_lcswhvSATSNBrKiN-198" vertex="1">
          <mxGeometry x="180" width="60" height="40" as="geometry">
            <mxRectangle width="60" height="40" as="alternateBounds" />
          </mxGeometry>
        </mxCell>
        <mxCell id="sUd_lcswhvSATSNBrKiN-206" value="Max: 0.6" style="text;strokeColor=none;fillColor=none;align=center;verticalAlign=middle;rounded=0;fontColor=default;labelBackgroundColor=default;" parent="nQx1I_NApKGMU57yptKq-1" vertex="1">
          <mxGeometry x="865" y="387" width="60" height="30" as="geometry" />
        </mxCell>
        <mxCell id="sUd_lcswhvSATSNBrKiN-207" value="Utility: 14" style="text;strokeColor=none;fillColor=none;align=center;verticalAlign=middle;rounded=0;fontColor=default;labelBackgroundColor=default;" parent="nQx1I_NApKGMU57yptKq-1" vertex="1">
          <mxGeometry x="925" y="387" width="60" height="30" as="geometry" />
        </mxCell>
        <mxCell id="sUd_lcswhvSATSNBrKiN-208" value="" style="endArrow=none;rounded=0;entryX=0.5;entryY=1;entryDx=0;entryDy=0;exitX=0.002;exitY=0.03;exitDx=0;exitDy=0;exitPerimeter=0;fontColor=default;labelBackgroundColor=default;" parent="nQx1I_NApKGMU57yptKq-1" source="sUd_lcswhvSATSNBrKiN-186" target="sUd_lcswhvSATSNBrKiN-184" edge="1">
          <mxGeometry width="50" height="50" relative="1" as="geometry">
            <mxPoint x="795" y="407" as="sourcePoint" />
            <mxPoint x="845" y="367" as="targetPoint" />
          </mxGeometry>
        </mxCell>
        <mxCell id="sUd_lcswhvSATSNBrKiN-242" value="E: 0.6Â " style="rounded=0;fontFamily=Times New Roman;fontColor=default;labelBackgroundColor=default;" parent="nQx1I_NApKGMU57yptKq-1" vertex="1">
          <mxGeometry x="386" y="359" width="70" height="30" as="geometry" />
        </mxCell>
        <mxCell id="sUd_lcswhvSATSNBrKiN-243" value="" style="shape=table;startSize=0;container=1;collapsible=0;childLayout=tableLayout;fontSize=14;fontFamily=Times New Roman;fontColor=default;labelBackgroundColor=default;" parent="nQx1I_NApKGMU57yptKq-1" vertex="1">
          <mxGeometry x="438" y="417" width="240" height="160" as="geometry" />
        </mxCell>
        <mxCell id="sUd_lcswhvSATSNBrKiN-244" value="" style="shape=tableRow;horizontal=0;startSize=0;swimlaneHead=0;swimlaneBody=0;strokeColor=inherit;top=0;left=0;bottom=0;right=0;collapsible=0;dropTarget=0;fillColor=none;points=[[0,0.5],[1,0.5]];portConstraint=eastwest;fontSize=16;fontColor=default;labelBackgroundColor=default;" parent="sUd_lcswhvSATSNBrKiN-243" vertex="1">
          <mxGeometry width="240" height="40" as="geometry" />
        </mxCell>
        <mxCell id="sUd_lcswhvSATSNBrKiN-245" value="TID" style="shape=partialRectangle;connectable=0;strokeColor=inherit;overflow=hidden;fillColor=none;top=0;left=0;bottom=0;right=0;pointerEvents=1;fontSize=14;fontFamily=Times New Roman;fontColor=default;labelBackgroundColor=default;" parent="sUd_lcswhvSATSNBrKiN-244" vertex="1">
          <mxGeometry width="60" height="40" as="geometry">
            <mxRectangle width="60" height="40" as="alternateBounds" />
          </mxGeometry>
        </mxCell>
        <mxCell id="sUd_lcswhvSATSNBrKiN-246" value="Prob" style="shape=partialRectangle;connectable=0;strokeColor=inherit;overflow=hidden;fillColor=none;top=0;left=0;bottom=0;right=0;pointerEvents=1;fontSize=14;fontFamily=Times New Roman;fontColor=default;labelBackgroundColor=default;" parent="sUd_lcswhvSATSNBrKiN-244" vertex="1">
          <mxGeometry x="60" width="60" height="40" as="geometry">
            <mxRectangle width="60" height="40" as="alternateBounds" />
          </mxGeometry>
        </mxCell>
        <mxCell id="sUd_lcswhvSATSNBrKiN-247" value="Uti" style="shape=partialRectangle;connectable=0;strokeColor=inherit;overflow=hidden;fillColor=none;top=0;left=0;bottom=0;right=0;pointerEvents=1;fontSize=14;fontFamily=Times New Roman;fontColor=default;labelBackgroundColor=default;" parent="sUd_lcswhvSATSNBrKiN-244" vertex="1">
          <mxGeometry x="120" width="60" height="40" as="geometry">
            <mxRectangle width="60" height="40" as="alternateBounds" />
          </mxGeometry>
        </mxCell>
        <mxCell id="BO8y0D7VBQcDdKsYQeH7-91" value="tu" style="shape=partialRectangle;connectable=0;strokeColor=inherit;overflow=hidden;fillColor=none;top=0;left=0;bottom=0;right=0;pointerEvents=1;fontSize=14;fontFamily=Times New Roman;fontColor=default;labelBackgroundColor=default;" parent="sUd_lcswhvSATSNBrKiN-244" vertex="1">
          <mxGeometry x="180" width="60" height="40" as="geometry">
            <mxRectangle width="60" height="40" as="alternateBounds" />
          </mxGeometry>
        </mxCell>
        <mxCell id="sUd_lcswhvSATSNBrKiN-248" value="" style="shape=tableRow;horizontal=0;startSize=0;swimlaneHead=0;swimlaneBody=0;strokeColor=inherit;top=0;left=0;bottom=0;right=0;collapsible=0;dropTarget=0;fillColor=none;points=[[0,0.5],[1,0.5]];portConstraint=eastwest;fontSize=16;fontColor=default;labelBackgroundColor=default;" parent="sUd_lcswhvSATSNBrKiN-243" vertex="1">
          <mxGeometry y="40" width="240" height="40" as="geometry" />
        </mxCell>
        <mxCell id="sUd_lcswhvSATSNBrKiN-249" value="2" style="shape=partialRectangle;connectable=0;strokeColor=inherit;overflow=hidden;fillColor=none;top=0;left=0;bottom=0;right=0;pointerEvents=1;fontSize=14;fontFamily=Times New Roman;fontColor=default;labelBackgroundColor=default;" parent="sUd_lcswhvSATSNBrKiN-248" vertex="1">
          <mxGeometry width="60" height="40" as="geometry">
            <mxRectangle width="60" height="40" as="alternateBounds" />
          </mxGeometry>
        </mxCell>
        <mxCell id="sUd_lcswhvSATSNBrKiN-250" value="0.4" style="shape=partialRectangle;connectable=0;strokeColor=inherit;overflow=hidden;fillColor=none;top=0;left=0;bottom=0;right=0;pointerEvents=1;fontSize=14;fontFamily=Times New Roman;fontColor=default;labelBackgroundColor=default;" parent="sUd_lcswhvSATSNBrKiN-248" vertex="1">
          <mxGeometry x="60" width="60" height="40" as="geometry">
            <mxRectangle width="60" height="40" as="alternateBounds" />
          </mxGeometry>
        </mxCell>
        <mxCell id="sUd_lcswhvSATSNBrKiN-251" value="4" style="shape=partialRectangle;connectable=0;strokeColor=inherit;overflow=hidden;fillColor=none;top=0;left=0;bottom=0;right=0;pointerEvents=1;fontSize=14;fontFamily=Times New Roman;fontColor=default;labelBackgroundColor=default;" parent="sUd_lcswhvSATSNBrKiN-248" vertex="1">
          <mxGeometry x="120" width="60" height="40" as="geometry">
            <mxRectangle width="60" height="40" as="alternateBounds" />
          </mxGeometry>
        </mxCell>
        <mxCell id="BO8y0D7VBQcDdKsYQeH7-92" value="20" style="shape=partialRectangle;connectable=0;strokeColor=inherit;overflow=hidden;fillColor=none;top=0;left=0;bottom=0;right=0;pointerEvents=1;fontSize=14;fontFamily=Times New Roman;fontColor=default;labelBackgroundColor=default;" parent="sUd_lcswhvSATSNBrKiN-248" vertex="1">
          <mxGeometry x="180" width="60" height="40" as="geometry">
            <mxRectangle width="60" height="40" as="alternateBounds" />
          </mxGeometry>
        </mxCell>
        <mxCell id="sUd_lcswhvSATSNBrKiN-252" value="" style="shape=tableRow;horizontal=0;startSize=0;swimlaneHead=0;swimlaneBody=0;strokeColor=inherit;top=0;left=0;bottom=0;right=0;collapsible=0;dropTarget=0;fillColor=none;points=[[0,0.5],[1,0.5]];portConstraint=eastwest;fontSize=16;fontColor=default;labelBackgroundColor=default;" parent="sUd_lcswhvSATSNBrKiN-243" vertex="1">
          <mxGeometry y="80" width="240" height="40" as="geometry" />
        </mxCell>
        <mxCell id="sUd_lcswhvSATSNBrKiN-253" value="4" style="shape=partialRectangle;connectable=0;strokeColor=inherit;overflow=hidden;fillColor=none;top=0;left=0;bottom=0;right=0;pointerEvents=1;fontSize=14;fontFamily=Times New Roman;fontColor=default;labelBackgroundColor=default;" parent="sUd_lcswhvSATSNBrKiN-252" vertex="1">
          <mxGeometry width="60" height="40" as="geometry">
            <mxRectangle width="60" height="40" as="alternateBounds" />
          </mxGeometry>
        </mxCell>
        <mxCell id="sUd_lcswhvSATSNBrKiN-254" value="0.1" style="shape=partialRectangle;connectable=0;strokeColor=inherit;overflow=hidden;fillColor=none;top=0;left=0;bottom=0;right=0;pointerEvents=1;fontSize=14;fontFamily=Times New Roman;fontColor=default;labelBackgroundColor=default;" parent="sUd_lcswhvSATSNBrKiN-252" vertex="1">
          <mxGeometry x="60" width="60" height="40" as="geometry">
            <mxRectangle width="60" height="40" as="alternateBounds" />
          </mxGeometry>
        </mxCell>
        <mxCell id="sUd_lcswhvSATSNBrKiN-255" value="4" style="shape=partialRectangle;connectable=0;strokeColor=inherit;overflow=hidden;fillColor=none;top=0;left=0;bottom=0;right=0;pointerEvents=1;fontSize=14;fontFamily=Times New Roman;fontColor=default;labelBackgroundColor=default;" parent="sUd_lcswhvSATSNBrKiN-252" vertex="1">
          <mxGeometry x="120" width="60" height="40" as="geometry">
            <mxRectangle width="60" height="40" as="alternateBounds" />
          </mxGeometry>
        </mxCell>
        <mxCell id="BO8y0D7VBQcDdKsYQeH7-93" value="15" style="shape=partialRectangle;connectable=0;strokeColor=inherit;overflow=hidden;fillColor=none;top=0;left=0;bottom=0;right=0;pointerEvents=1;fontSize=14;fontFamily=Times New Roman;fontColor=default;labelBackgroundColor=default;" parent="sUd_lcswhvSATSNBrKiN-252" vertex="1">
          <mxGeometry x="180" width="60" height="40" as="geometry">
            <mxRectangle width="60" height="40" as="alternateBounds" />
          </mxGeometry>
        </mxCell>
        <mxCell id="sUd_lcswhvSATSNBrKiN-260" value="" style="shape=tableRow;horizontal=0;startSize=0;swimlaneHead=0;swimlaneBody=0;strokeColor=inherit;top=0;left=0;bottom=0;right=0;collapsible=0;dropTarget=0;fillColor=none;points=[[0,0.5],[1,0.5]];portConstraint=eastwest;fontSize=16;fontColor=default;labelBackgroundColor=default;" parent="sUd_lcswhvSATSNBrKiN-243" vertex="1">
          <mxGeometry y="120" width="240" height="40" as="geometry" />
        </mxCell>
        <mxCell id="sUd_lcswhvSATSNBrKiN-261" value="6" style="shape=partialRectangle;connectable=0;strokeColor=inherit;overflow=hidden;fillColor=none;top=0;left=0;bottom=0;right=0;pointerEvents=1;fontSize=14;fontFamily=Times New Roman;fontColor=default;labelBackgroundColor=default;" parent="sUd_lcswhvSATSNBrKiN-260" vertex="1">
          <mxGeometry width="60" height="40" as="geometry">
            <mxRectangle width="60" height="40" as="alternateBounds" />
          </mxGeometry>
        </mxCell>
        <mxCell id="sUd_lcswhvSATSNBrKiN-262" value="0.1" style="shape=partialRectangle;connectable=0;strokeColor=inherit;overflow=hidden;fillColor=none;top=0;left=0;bottom=0;right=0;pointerEvents=1;fontSize=14;fontFamily=Times New Roman;fontColor=default;labelBackgroundColor=default;" parent="sUd_lcswhvSATSNBrKiN-260" vertex="1">
          <mxGeometry x="60" width="60" height="40" as="geometry">
            <mxRectangle width="60" height="40" as="alternateBounds" />
          </mxGeometry>
        </mxCell>
        <mxCell id="sUd_lcswhvSATSNBrKiN-263" value="4" style="shape=partialRectangle;connectable=0;strokeColor=inherit;overflow=hidden;fillColor=none;top=0;left=0;bottom=0;right=0;pointerEvents=1;fontSize=14;fontFamily=Times New Roman;fontColor=default;labelBackgroundColor=default;" parent="sUd_lcswhvSATSNBrKiN-260" vertex="1">
          <mxGeometry x="120" width="60" height="40" as="geometry">
            <mxRectangle width="60" height="40" as="alternateBounds" />
          </mxGeometry>
        </mxCell>
        <mxCell id="BO8y0D7VBQcDdKsYQeH7-94" value="13" style="shape=partialRectangle;connectable=0;strokeColor=inherit;overflow=hidden;fillColor=none;top=0;left=0;bottom=0;right=0;pointerEvents=1;fontSize=14;fontFamily=Times New Roman;fontColor=default;labelBackgroundColor=default;" parent="sUd_lcswhvSATSNBrKiN-260" vertex="1">
          <mxGeometry x="180" width="60" height="40" as="geometry">
            <mxRectangle width="60" height="40" as="alternateBounds" />
          </mxGeometry>
        </mxCell>
        <mxCell id="sUd_lcswhvSATSNBrKiN-264" value="Max: 0.4" style="text;strokeColor=none;fillColor=none;align=center;verticalAlign=middle;rounded=0;fontColor=default;labelBackgroundColor=default;" parent="nQx1I_NApKGMU57yptKq-1" vertex="1">
          <mxGeometry x="498" y="387" width="60" height="30" as="geometry" />
        </mxCell>
        <mxCell id="sUd_lcswhvSATSNBrKiN-265" value="Utility: 12" style="text;strokeColor=none;fillColor=none;align=center;verticalAlign=middle;rounded=0;fontColor=default;labelBackgroundColor=default;" parent="nQx1I_NApKGMU57yptKq-1" vertex="1">
          <mxGeometry x="558" y="387" width="60" height="30" as="geometry" />
        </mxCell>
        <mxCell id="sUd_lcswhvSATSNBrKiN-266" value="" style="endArrow=none;rounded=0;entryX=0.5;entryY=1;entryDx=0;entryDy=0;exitX=0.002;exitY=0.03;exitDx=0;exitDy=0;exitPerimeter=0;fontColor=default;labelBackgroundColor=default;" parent="nQx1I_NApKGMU57yptKq-1" source="sUd_lcswhvSATSNBrKiN-244" target="sUd_lcswhvSATSNBrKiN-242" edge="1">
          <mxGeometry width="50" height="50" relative="1" as="geometry">
            <mxPoint x="428" y="407" as="sourcePoint" />
            <mxPoint x="478" y="367" as="targetPoint" />
          </mxGeometry>
        </mxCell>
        <mxCell id="BO8y0D7VBQcDdKsYQeH7-100" value="twu: 57" style="text;strokeColor=none;fillColor=none;align=center;verticalAlign=middle;rounded=0;fontColor=default;labelBackgroundColor=default;" parent="nQx1I_NApKGMU57yptKq-1" vertex="1">
          <mxGeometry x="233" y="37" width="60" height="30" as="geometry" />
        </mxCell>
        <mxCell id="BO8y0D7VBQcDdKsYQeH7-101" value="twu: 65" style="text;strokeColor=none;fillColor=none;align=center;verticalAlign=middle;rounded=0;fontColor=default;labelBackgroundColor=default;" parent="nQx1I_NApKGMU57yptKq-1" vertex="1">
          <mxGeometry x="618" y="34" width="60" height="30" as="geometry" />
        </mxCell>
        <mxCell id="BO8y0D7VBQcDdKsYQeH7-102" value="twu: 84" style="text;strokeColor=none;fillColor=none;align=center;verticalAlign=middle;rounded=0;fontColor=default;labelBackgroundColor=default;" parent="nQx1I_NApKGMU57yptKq-1" vertex="1">
          <mxGeometry x="979" y="28" width="60" height="30" as="geometry" />
        </mxCell>
        <mxCell id="BO8y0D7VBQcDdKsYQeH7-103" value="twu: 82" style="text;strokeColor=none;fillColor=none;align=center;verticalAlign=middle;rounded=0;fontColor=default;labelBackgroundColor=default;" parent="nQx1I_NApKGMU57yptKq-1" vertex="1">
          <mxGeometry x="232" y="395" width="60" height="30" as="geometry" />
        </mxCell>
        <mxCell id="BO8y0D7VBQcDdKsYQeH7-104" value="twu: 48" style="text;strokeColor=none;fillColor=none;align=center;verticalAlign=middle;rounded=0;fontColor=default;labelBackgroundColor=default;" parent="nQx1I_NApKGMU57yptKq-1" vertex="1">
          <mxGeometry x="618" y="387" width="60" height="30" as="geometry" />
        </mxCell>
        <mxCell id="BO8y0D7VBQcDdKsYQeH7-105" value="twu: 53" style="text;strokeColor=none;fillColor=none;align=center;verticalAlign=middle;rounded=0;fontColor=default;labelBackgroundColor=default;" parent="nQx1I_NApKGMU57yptKq-1" vertex="1">
          <mxGeometry x="985" y="387" width="60" height="30" as="geometry" />
        </mxCell>
      </root>
    </mxGraphModel>
  </diagram>
</mxfile>
